<svg xmlns="http://www.w3.org/2000/svg" width="30.966" height="26.701" viewBox="0 0 30.966 26.701">
  <g id="Group_16539" data-name="Group 16539" transform="translate(1718.793 -1682.671)">
    <g id="Group_16538" data-name="Group 16538" transform="translate(-1718.793 1687.319)">
      <path id="Path_31624" data-name="Path 31624" d="M291.536,329.313a1.073,1.073,0,0,0-1.073-1.073h-4.291a1.073,1.073,0,0,0,0,2.146h4.291A1.073,1.073,0,0,0,291.536,329.313Z" transform="translate(-285.1 -319.658)" fill="#f16427"/>
      <path id="Path_31628" data-name="Path 31628" d="M1.073,0h1.17A1.073,1.073,0,0,1,3.316,1.073h0A1.073,1.073,0,0,1,2.243,2.145H1.073A1.073,1.073,0,0,1,0,1.073H0A1.073,1.073,0,0,1,1.073,0Z" transform="translate(4.876 0)" fill="#f16427"/>
      <path id="Path_31625" data-name="Path 31625" d="M336.112,362.284a2.642,2.642,0,1,0,2.642,2.642A2.642,2.642,0,0,0,336.112,362.284Zm0,3.455a.813.813,0,1,1,.813-.813A.813.813,0,0,1,336.112,365.739Z" transform="translate(-321.838 -345.516)" fill="#273b60"/>
      <path id="Path_31626" data-name="Path 31626" d="M380.91,362.284a2.642,2.642,0,1,0,2.642,2.642A2.642,2.642,0,0,0,380.91,362.284Zm0,3.455a.813.813,0,1,1,.813-.813A.813.813,0,0,1,380.91,365.739Z" transform="translate(-355.864 -345.516)" fill="#273b60"/>
      <path id="Path_31627" data-name="Path 31627" d="M327.112,309.4l-3.189-15.14a2.081,2.081,0,0,0-1.8-1.639H306.276a1.071,1.071,0,0,0,.155,2.131h1.406a1.072,1.072,0,0,1,0,2.144H302.53a1.073,1.073,0,0,0,0,2.146H307.8a1.072,1.072,0,1,1,0,2.144H304.87a1.073,1.073,0,0,0,0,2.146h.8a1.072,1.072,0,0,1-.016,2.144h-4.876a1.073,1.073,0,0,0,0,2.146h5.077a1.072,1.072,0,1,1,0,2.144h-3.868a1.073,1.073,0,0,0,0,2.146h5.029a3.455,3.455,0,0,1,6.907,0h3.866a3.455,3.455,0,0,1,6.907,0h.38A2.085,2.085,0,0,0,327.112,309.4ZM311.27,305.16a1.077,1.077,0,0,1-.76.313h-1.543a1.072,1.072,0,1,1,0-2.144h1.543a1.073,1.073,0,0,1,.76,1.831Z" transform="translate(-296.191 -292.601)" fill="#f16427"/>
    </g>
    <g id="Group_3334" data-name="Group 3334" transform="translate(-1703.998 1692.803)">
      <g id="Group_3332" data-name="Group 3332" transform="translate(3.285 6.055)">
        <path id="Path_11494" data-name="Path 11494" d="M911.543,657.66a.611.611,0,1,0,.611.612A.612.612,0,0,0,911.543,657.66Z" transform="translate(-910.932 -657.66)" fill="#fff"/>
        <path id="Path_11495" data-name="Path 11495" d="M923.238,657.66a.611.611,0,1,0,.611.612A.611.611,0,0,0,923.238,657.66Z" transform="translate(-920.77 -657.66)" fill="#fff"/>
      </g>
      <g id="Group_3333" data-name="Group 3333">
        <path id="Path_11496" data-name="Path 11496" d="M904.04,630.877a.456.456,0,0,0-.438.339,2.968,2.968,0,0,1-5.717,0,.456.456,0,0,0-.438-.339h0a.458.458,0,0,0-.441.579,3.879,3.879,0,0,0,7.476,0A.458.458,0,0,0,904.04,630.877Z" transform="translate(-895.918 -629.075)" fill="#fff"/>
        <path id="Path_11497" data-name="Path 11497" d="M939.27,619.531a.684.684,0,1,0,.684.684A.685.685,0,0,0,939.27,619.531Z" transform="translate(-930.908 -619.531)" fill="#fff"/>
        <path id="Path_11498" data-name="Path 11498" d="M891.7,620.893a.683.683,0,0,1,.45.236.3.3,0,0,0,.277.113.359.359,0,0,0,.3-.319.348.348,0,0,0-.091-.274,1.4,1.4,0,0,0-2.4.9.348.348,0,0,0,.1.268.356.356,0,0,0,.436.054.3.3,0,0,0,.143-.262.7.7,0,0,1,.063-.277h0l.013-.026,0,0a.682.682,0,0,1,.7-.405Z" transform="translate(-890.246 -620.098)" fill="#fff"/>
      </g>
    </g>
    <path id="Path_31623" data-name="Path 31623" d="M889.287,556.6c.347-1.245,1.528-4.207,4.914-4.207s4.351,2.935,4.613,4.2a.676.676,0,1,1-.67.131c-.213-1.1-1.022-3.653-3.942-3.653-2.879,0-3.917,2.53-4.235,3.649a.659.659,0,0,1,.233.5.677.677,0,1,1-.913-.622Z" transform="translate(-2593.532 1130.278)" fill="#fdce0c"/>
  </g>
</svg>
