<svg xmlns="http://www.w3.org/2000/svg" width="192.105" height="158.989" viewBox="0 0 192.105 158.989">
  <g id="Group_16522" data-name="Group 16522" transform="translate(-91.447 -118.536)">
    <path id="Path_2919" data-name="Path 2919" d="M251.017,235.664s43.574-6.042,49.348,23.193c3.056,15.471,25.535,4.291,38.362,9.66,9.132,3.823,4.413,16.771,9.9,20.148,27.035,16.641,20,89.42,14.752,89.409l-180.283-.3s-14.581-21.82-1.381-34.562,4.137-18.568,2.532-23.492c-1.842-5.654-8.437-21.8,10.351-28.864,9.646-3.628,12.643-13.672,13.373-20.376a35.641,35.641,0,0,1,17.388-27.22C231.52,239.736,239.829,236.841,251.017,235.664Z" transform="translate(-84.738 -100.549)" fill="#dee5eb" opacity="0.51"/>
    <g id="Group_16519" data-name="Group 16519" transform="translate(116.455 119.536)">
      <g id="Group_16491" data-name="Group 16491" transform="translate(76.762 0)" opacity="0.4">
        <path id="Path_31577" data-name="Path 31577" d="M1549.4,543.766a19.674,19.674,0,0,0,.392-7.76l.8-.12,1.577-.236.02,0a22.028,22.028,0,0,0-2.883-8.078l-2.077,1.237a19.681,19.681,0,0,0-5.215-5.758l1.442-1.948a21.93,21.93,0,0,0-7.751-3.68l-.6,2.352a19.641,19.641,0,0,0-7.76-.393l-.36-2.4a22.168,22.168,0,0,0-8.078,2.883l1.237,2.077a19.678,19.678,0,0,0-5.758,5.215l-1.948-1.442a21.932,21.932,0,0,0-3.68,7.751l2.352.6a19.636,19.636,0,0,0-.393,7.759l-1.695.253-.691.109-.009,0a22.169,22.169,0,0,0,2.883,8.078l2.077-1.237a19.716,19.716,0,0,0,5.224,5.76l-1.442,1.948a21.891,21.891,0,0,0,7.742,3.678l.6-2.352a19.686,19.686,0,0,0,7.768.4l.277,1.862.083.533a22.128,22.128,0,0,0,8.068-2.885l-1.237-2.077a19.889,19.889,0,0,0,5.769-5.221l1.948,1.442a22.05,22.05,0,0,0,3.669-7.745Zm-21.778,5.545a10.72,10.72,0,1,1,13.021-7.764A10.719,10.719,0,0,1,1527.622,549.31Z" transform="translate(-1508.326 -516.984)" fill="none" stroke="#fdce0c" stroke-linejoin="round" stroke-width="2"/>
      </g>
      <g id="Group_16492" data-name="Group 16492" transform="translate(107.344 43.163)" opacity="0.4">
        <path id="Path_31578" data-name="Path 31578" d="M1825.24,941.543a10.358,10.358,0,0,0-3.127-2.637l.2-.373.4-.736,0-.01a11.6,11.6,0,0,0-4.3-1.365l-.143,1.265a10.365,10.365,0,0,0-4.075.351l-.357-1.225a11.547,11.547,0,0,0-4.012,2.076l.8,1a10.335,10.335,0,0,0-2.637,3.127l-1.119-.612a11.665,11.665,0,0,0-1.365,4.3l1.265.143a10.361,10.361,0,0,0,.351,4.075l-1.225.357a11.554,11.554,0,0,0,2.076,4.012l1-.8a10.341,10.341,0,0,0,3.127,2.637l-.434.791-.174.325,0,0a11.673,11.673,0,0,0,4.3,1.365l.143-1.265a10.387,10.387,0,0,0,4.079-.354l.357,1.225a11.531,11.531,0,0,0,4.009-2.073l-.8-1a10.359,10.359,0,0,0,2.641-3.13l.869.477.25.135a11.648,11.648,0,0,0,1.362-4.3l-1.265-.143a10.468,10.468,0,0,0-.35-4.082l1.225-.357a11.606,11.606,0,0,0-2.077-4.006Zm-4.615,10.895a5.644,5.644,0,1,1,.9-7.931A5.644,5.644,0,0,1,1820.625,952.438Z" transform="translate(-1805.508 -936.422)" fill="none" stroke="#f16427" stroke-linejoin="round" stroke-width="1"/>
      </g>
      <g id="Group_16493" data-name="Group 16493" transform="translate(9.976 49.97)">
        <path id="Path_31579" data-name="Path 31579" d="M922.7,1500.422a11.951,11.951,0,0,0-3.609-3.043l.235-.43.466-.849.005-.011a13.38,13.38,0,0,0-4.967-1.576l-.165,1.459a11.956,11.956,0,0,0-4.7.405l-.412-1.414a13.329,13.329,0,0,0-4.63,2.4l.918,1.153a11.935,11.935,0,0,0-3.043,3.609l-1.291-.706a13.467,13.467,0,0,0-1.576,4.967l1.459.165a11.956,11.956,0,0,0,.4,4.7l-1.413.412a13.328,13.328,0,0,0,2.4,4.63l1.153-.919a11.93,11.93,0,0,0,3.609,3.043l-.5.913-.2.374,0,0a13.471,13.471,0,0,0,4.967,1.576l.165-1.459a11.978,11.978,0,0,0,4.707-.408l.412,1.414a13.3,13.3,0,0,0,4.626-2.393l-.918-1.153a11.962,11.962,0,0,0,3.047-3.612l1,.551.288.156a13.442,13.442,0,0,0,1.572-4.963l-1.459-.165a12.084,12.084,0,0,0-.4-4.71l1.414-.412a13.4,13.4,0,0,0-2.4-4.622Zm-5.326,12.572a6.513,6.513,0,1,1,1.033-9.153A6.512,6.512,0,0,1,917.379,1512.994Z" transform="translate(-899.934 -1494.512)" fill="none" stroke="#273b60" stroke-miterlimit="10" stroke-width="2"/>
      </g>
      <g id="phone" transform="translate(27.167 14.246)">
        <path id="Path_31580" data-name="Path 31580" d="M1151.749,662.893c-1.143-6.77-11.568-9.826-11.364-5.407l-47.79.28c-3.31.019-5.994,3-6,6.654l-.1,125.688c0,3.789,2.728,6.887,6.1,6.916l48.786.419a3.9,3.9,0,0,0,1.762,1.7c5.595.119,8.278-2.644,9.259-5.767a7.525,7.525,0,0,0,.485-2.742C1152.7,788.994,1152.1,664.48,1151.749,662.893Z" transform="translate(-1080.313 -655.417)" fill="#273b60" opacity="0.36"/>
        <path id="Path_31581" data-name="Path 31581" d="M1088.7,799.315l-56-.361c-3.494-.023-6.321-3.2-6.315-7.1l.21-129.259c.006-3.759,2.788-6.813,6.215-6.824l54.911-.178c3.454-.011,6.279,3.038,6.308,6.815l1,129.857C1095.057,796.178,1092.225,799.338,1088.7,799.315Z" transform="translate(-1026.388 -655.572)" fill="#fff"/>
        <path id="Path_31582" data-name="Path 31582" d="M1097.717,805.888a5.066,5.066,0,0,1-.707.044l-55.983-.424c-3-.023-5.457-2.812-5.452-6.215l.193-129.117c0-3.282,2.42-5.96,5.366-5.973l54.908-.239c.086,0,.173,0,.258.005a5.2,5.2,0,0,1,3.638,1.771,6.206,6.206,0,0,1,1.547,4.111l.982,129.988A5.838,5.838,0,0,1,1097.717,805.888Z" transform="translate(-1034.63 -663.085)" fill="#273b60"/>
        <path id="Path_31583" data-name="Path 31583" d="M1115.8,727.521l.944,129.536-63.066-.378.161-129.158Z" transform="translate(-1050.867 -720.1)" fill="#f8f8f8"/>
      </g>
      <rect id="Rectangle_18353" data-name="Rectangle 18353" width="48.85" height="5.195" rx="2.597" transform="translate(36.746 62.371)" fill="#fff"/>
      <path id="Path_31585" data-name="Path 31585" d="M1165.726,1209.562H1122.07a2.6,2.6,0,0,1-2.6-2.6h0a2.6,2.6,0,0,1,2.6-2.6h43.655a2.6,2.6,0,0,1,2.6,2.6h0A2.6,2.6,0,0,1,1165.726,1209.562Z" transform="translate(-1082.727 -1133.63)" fill="#fff"/>
      <g id="Group_16494" data-name="Group 16494" transform="translate(45.666 72.271)">
        <path id="Path_31586" data-name="Path 31586" d="M1207.983,1223.872a.914.914,0,1,1-.914-.914A.914.914,0,0,1,1207.983,1223.872Z" transform="translate(-1206.154 -1222.579)" fill="#273b60"/>
        <ellipse id="Ellipse_804" data-name="Ellipse 804" cx="0.914" cy="0.914" rx="0.914" ry="0.914" transform="translate(2.965 1.997) rotate(-77.994)" fill="#273b60"/>
        <circle id="Ellipse_805" data-name="Ellipse 805" cx="0.914" cy="0.914" r="0.914" transform="translate(5.892 1.293) rotate(-45)" fill="#273b60"/>
        <circle id="Ellipse_806" data-name="Ellipse 806" cx="0.914" cy="0.914" r="0.914" transform="translate(9.027 1.293) rotate(-45)" fill="#273b60"/>
        <ellipse id="Ellipse_807" data-name="Ellipse 807" cx="0.914" cy="0.914" rx="0.914" ry="0.914" transform="translate(12.261 0.798) rotate(-22.5)" fill="#273b60"/>
        <ellipse id="Ellipse_808" data-name="Ellipse 808" cx="0.914" cy="0.914" rx="0.914" ry="0.914" transform="matrix(0.23, -0.973, 0.973, 0.23, 15.491, 1.973)" fill="#273b60"/>
        <circle id="Ellipse_809" data-name="Ellipse 809" cx="0.914" cy="0.914" r="0.914" transform="translate(18.433 1.293) rotate(-45)" fill="#273b60"/>
        <circle id="Ellipse_810" data-name="Ellipse 810" cx="0.914" cy="0.914" r="0.914" transform="translate(21.568 1.293) rotate(-45)" fill="#273b60"/>
        <ellipse id="Ellipse_811" data-name="Ellipse 811" cx="0.914" cy="0.914" rx="0.914" ry="0.914" transform="translate(24.802 0.798) rotate(-22.5)" fill="#273b60"/>
      </g>
      <g id="Group_16518" data-name="Group 16518" transform="translate(45.666 64.003)">
        <path id="Path_31586-2" data-name="Path 31586" d="M1207.983,1223.872a.914.914,0,1,1-.914-.914A.914.914,0,0,1,1207.983,1223.872Z" transform="translate(-1206.154 -1222.579)" fill="#273b60"/>
        <ellipse id="Ellipse_804-2" data-name="Ellipse 804" cx="0.914" cy="0.914" rx="0.914" ry="0.914" transform="translate(2.965 1.997) rotate(-77.994)" fill="#273b60"/>
        <circle id="Ellipse_805-2" data-name="Ellipse 805" cx="0.914" cy="0.914" r="0.914" transform="translate(5.892 1.293) rotate(-45)" fill="#273b60"/>
        <circle id="Ellipse_806-2" data-name="Ellipse 806" cx="0.914" cy="0.914" r="0.914" transform="translate(9.027 1.293) rotate(-45)" fill="#273b60"/>
        <ellipse id="Ellipse_807-2" data-name="Ellipse 807" cx="0.914" cy="0.914" rx="0.914" ry="0.914" transform="translate(12.261 0.798) rotate(-22.5)" fill="#273b60"/>
        <ellipse id="Ellipse_808-2" data-name="Ellipse 808" cx="0.914" cy="0.914" rx="0.914" ry="0.914" transform="matrix(0.23, -0.973, 0.973, 0.23, 15.491, 1.973)" fill="#273b60"/>
        <circle id="Ellipse_809-2" data-name="Ellipse 809" cx="0.914" cy="0.914" r="0.914" transform="translate(18.433 1.293) rotate(-45)" fill="#273b60"/>
        <circle id="Ellipse_810-2" data-name="Ellipse 810" cx="0.914" cy="0.914" r="0.914" transform="translate(21.568 1.293) rotate(-45)" fill="#273b60"/>
        <ellipse id="Ellipse_811-2" data-name="Ellipse 811" cx="0.914" cy="0.914" rx="0.914" ry="0.914" transform="translate(24.802 0.798) rotate(-22.5)" fill="#273b60"/>
      </g>
      <path id="Path_31589" data-name="Path 31589" d="M1146.582,1214.83v-.139a1.022,1.022,0,1,0-2.044,0v.139h-.155v1.842c0,.318,2.361.318,2.361,0v-1.842Zm-1.68-.139a.661.661,0,1,1,1.322,0v.139H1144.9Zm.832,1.067v.532a.169.169,0,0,1-.178.164.157.157,0,0,1-.163-.164v-.532a.311.311,0,0,1-.164-.273.327.327,0,1,1,.655,0A.329.329,0,0,1,1145.734,1215.758Z" transform="translate(-1104.598 -1141.975)" fill="#273b60"/>
      <path id="Path_31617" data-name="Path 31617" d="M1146.582,1214.83v-.139a1.022,1.022,0,1,0-2.044,0v.139h-.155v1.842c0,.318,2.361.318,2.361,0v-1.842Zm-1.68-.139a.661.661,0,1,1,1.322,0v.139H1144.9Zm.832,1.067v.532a.169.169,0,0,1-.178.164.157.157,0,0,1-.163-.164v-.532a.311.311,0,0,1-.164-.273.327.327,0,1,1,.655,0A.329.329,0,0,1,1145.734,1215.758Z" transform="translate(-1104.598 -1150.321)" fill="#273b60"/>
      <g id="key" transform="translate(48.305 100.411)">
        <path id="Path_31594" data-name="Path 31594" d="M1231.8,1621.327v18.924c0,2.1,25.732,2.1,25.732,0v-18.924Z" transform="translate(-1231.798 -1608.093)" fill="#273b60" opacity="0.33"/>
        <g id="Group_16501" data-name="Group 16501" transform="translate(9.044 16.56)">
          <ellipse id="Ellipse_813" data-name="Ellipse 813" cx="3.177" cy="3.177" rx="3.177" ry="3.177" transform="translate(0 6.184) rotate(-76.717)" fill="#273b60"/>
          <path id="Rectangle_18354" data-name="Rectangle 18354" d="M0,0H2.6a0,0,0,0,1,0,0V7.286a1.3,1.3,0,0,1-1.3,1.3h0A1.3,1.3,0,0,1,0,7.286V0A0,0,0,0,1,0,0Z" transform="translate(2.52 4.801)" fill="#273b60"/>
        </g>
        <path id="Path_31595" data-name="Path 31595" d="M1274.935,1504.613h-2.6v-1.274a8.006,8.006,0,1,0-16.013,0v1.274h-2.6v-1.274a10.611,10.611,0,1,1,21.222,0Z" transform="translate(-1251.458 -1492.728)" fill="#273b60" opacity="0.33"/>
      </g>
      <g id="Group_16503" data-name="Group 16503" transform="translate(82.69 76.74)">
        <g id="Group_16502" data-name="Group 16502">
          <path id="Path_31596" data-name="Path 31596" d="M1565.927,1398.2h0c0-.1,0-.145,0-.155C1565.927,1398.066,1565.927,1398.2,1565.927,1398.2Z" transform="translate(-1565.927 -1384.119)" fill="#e3ffff"/>
          <path id="Path_31597" data-name="Path 31597" d="M1565.927,1398.2h0c0-.1,0-.145,0-.155C1565.927,1398.066,1565.927,1398.2,1565.927,1398.2Z" transform="translate(-1565.927 -1384.119)" fill="#e3ffff"/>
          <path id="Path_31598" data-name="Path 31598" d="M2148.3,1400.8s0-.136,0-.155c0,.01,0,.054,0,.155Z" transform="translate(-2088.366 -1386.454)" fill="#e3ffff"/>
          <path id="Path_31599" data-name="Path 31599" d="M2148.3,1400.8s0-.136,0-.155c0,.01,0,.054,0,.155Z" transform="translate(-2088.366 -1386.454)" fill="#e3ffff"/>
          <path id="Path_31600" data-name="Path 31600" d="M1608.379,1262.7c-6.634,7.106-17.22,12.93-28.547,15.412,0,.756-.022,4.948-.108,24.268-.115,25.772,24.412,38.366,28.22,40.3,3.689-1.7,28.526-14.272,28.641-40.045.086-19.32.1-23.511.108-24.268C1625.388,1275.786,1614.95,1269.868,1608.379,1262.7Z" transform="translate(-1578.303 -1262.703)" fill="#fff"/>
        </g>
      </g>
      <g id="Group_16504" data-name="Group 16504" transform="translate(85.871 79.535)">
        <path id="Path_31601" data-name="Path 31601" d="M1623.674,1289.864c-6.839,6.274-16.314,11.2-26.732,13.892l-.1,22.987c-.047,10.518,4.132,20.034,12.42,28.283a59.419,59.419,0,0,0,14.078,10.293c.125-.063.262-.135.4-.205v-75.2C1623.713,1289.9,1623.693,1289.882,1623.674,1289.864Z" transform="translate(-1596.838 -1289.864)" fill="#273b60"/>
        <path id="Path_31602" data-name="Path 31602" d="M1858.19,1290.385v75.2a59.428,59.428,0,0,0,13.772-9.962c8.361-8.174,12.625-17.652,12.672-28.17l.1-22.988C1874.372,1301.689,1864.968,1296.694,1858.19,1290.385Z" transform="translate(-1831.295 -1290.331)" fill="#647697"/>
      </g>
      <path id="Path_31603" data-name="Path 31603" d="M1713.755,1514.283c-7.932,1.223-18.732,8.458-25.546,17.156-.956-4.1-5.246-7.846-7.491-8.664l-6.8,6.836c4.246,1.914,8.887,7.336,9.5,12.886l6.794,1.053c2.864-5.658,10.262-19.192,24.979-26.469A11.15,11.15,0,0,0,1713.755,1514.283Z" transform="translate(-1580.114 -1411.653)" fill="#f8f8f8"/>
      <g id="Group_16515" data-name="Group 16515" transform="translate(0 77.843)">
        <g id="Group_15442" data-name="Group 15442" transform="translate(6.611 70.197)">
          <g id="Group_15439" data-name="Group 15439" transform="translate(0 0)">
            <g id="Group_15421" data-name="Group 15421">
              <g id="Group_15420" data-name="Group 15420">
                <g id="Group_15419" data-name="Group 15419">
                  <g id="Group_15418" data-name="Group 15418">
                    <g id="Group_15417" data-name="Group 15417">
                      <path id="Path_29961" data-name="Path 29961" d="M-160.35,458.791l-.894,6.657-3.6-.411.882-6.671Z" transform="translate(164.845 -458.366)" fill="#162d40"/>
                    </g>
                  </g>
                </g>
              </g>
            </g>
            <g id="Group_15427" data-name="Group 15427" transform="translate(1.853 0.13)">
              <g id="Group_15426" data-name="Group 15426">
                <g id="Group_15425" data-name="Group 15425">
                  <g id="Group_15424" data-name="Group 15424">
                    <g id="Group_15423" data-name="Group 15423">
                      <g id="Group_15422" data-name="Group 15422">
                        <path id="Path_29962" data-name="Path 29962" d="M-155.562,465.517c-.03,0,.16-1.463.424-3.257s.5-3.245.532-3.241-.16,1.462-.424,3.257S-155.533,465.521-155.562,465.517Z" transform="translate(155.566 -459.019)" fill="#f8f8f8"/>
                      </g>
                    </g>
                  </g>
                </g>
              </g>
            </g>
            <g id="Group_15432" data-name="Group 15432" transform="translate(0 6.2)">
              <g id="Group_15431" data-name="Group 15431">
                <g id="Group_15430" data-name="Group 15430">
                  <g id="Group_15429" data-name="Group 15429">
                    <g id="Group_15428" data-name="Group 15428">
                      <path id="Path_29963" data-name="Path 29963" d="M-161.182,489.843l-3.6-.423-.062.471,3.6.411Z" transform="translate(164.845 -489.421)" fill="#263238"/>
                    </g>
                  </g>
                </g>
              </g>
            </g>
            <g id="Group_15438" data-name="Group 15438" transform="translate(0.282 3.703)">
              <g id="Group_15437" data-name="Group 15437">
                <g id="Group_15436" data-name="Group 15436">
                  <g id="Group_15435" data-name="Group 15435">
                    <g id="Group_15434" data-name="Group 15434">
                      <g id="Group_15433" data-name="Group 15433">
                        <path id="Path_29964" data-name="Path 29964" d="M-163.434,477.75c-.005,0,.033-.054.112-.133a2.5,2.5,0,0,1,.368-.3,2.457,2.457,0,0,1,.634-.309,1.91,1.91,0,0,1,.863-.078,1.919,1.919,0,0,1,1.316.8,1.658,1.658,0,0,1,.209.427.472.472,0,0,1,.035.17,3.8,3.8,0,0,0-.307-.552,1.93,1.93,0,0,0-1.269-.739,2.219,2.219,0,0,0-1.439.343C-163.247,477.588-163.421,477.764-163.434,477.75Z" transform="translate(163.434 -476.914)" fill="#f8f8f8"/>
                      </g>
                    </g>
                  </g>
                </g>
              </g>
            </g>
          </g>
          <g id="Group_15441" data-name="Group 15441" transform="translate(0.436 2.784)" opacity="0.3">
            <g id="Group_15440" data-name="Group 15440">
              <path id="Path_29965" data-name="Path 29965" d="M-158.937,472.641l-.107.59-3.619-.331.078-.592Z" transform="translate(162.662 -472.308)"/>
            </g>
          </g>
        </g>
        <g id="Group_15468" data-name="Group 15468" transform="translate(18.605 70.895)">
          <g id="Group_15465" data-name="Group 15465" transform="translate(0)">
            <g id="Group_15447" data-name="Group 15447" transform="translate(0 0.009)">
              <g id="Group_15446" data-name="Group 15446">
                <g id="Group_15445" data-name="Group 15445">
                  <g id="Group_15444" data-name="Group 15444">
                    <g id="Group_15443" data-name="Group 15443">
                      <path id="Path_29966" data-name="Path 29966" d="M-100.742,462.072l-.411,6.7-3.621-.15.4-6.718Z" transform="translate(104.774 -461.909)" fill="#162d40"/>
                    </g>
                  </g>
                </g>
              </g>
            </g>
            <g id="Group_15453" data-name="Group 15453" transform="translate(1.842)">
              <g id="Group_15452" data-name="Group 15452">
                <g id="Group_15451" data-name="Group 15451">
                  <g id="Group_15450" data-name="Group 15450">
                    <g id="Group_15449" data-name="Group 15449">
                      <g id="Group_15448" data-name="Group 15448">
                        <path id="Path_29967" data-name="Path 29967" d="M-95.544,468.412c-.03,0,.054-1.47.187-3.279s.267-3.273.3-3.271-.054,1.47-.187,3.279S-95.513,468.414-95.544,468.412Z" transform="translate(95.55 -461.862)" fill="#f8f8f8"/>
                      </g>
                    </g>
                  </g>
                </g>
              </g>
            </g>
            <g id="Group_15458" data-name="Group 15458" transform="translate(0 6.253)">
              <g id="Group_15457" data-name="Group 15457">
                <g id="Group_15456" data-name="Group 15456">
                  <g id="Group_15455" data-name="Group 15455">
                    <g id="Group_15454" data-name="Group 15454">
                      <path id="Path_29968" data-name="Path 29968" d="M-101.125,493.341l-3.621-.162-.028.474,3.621.15Z" transform="translate(104.774 -493.179)" fill="#263238"/>
                    </g>
                  </g>
                </g>
              </g>
            </g>
            <g id="Group_15464" data-name="Group 15464" transform="translate(0.127 3.618)">
              <g id="Group_15463" data-name="Group 15463">
                <g id="Group_15462" data-name="Group 15462">
                  <g id="Group_15461" data-name="Group 15461">
                    <g id="Group_15460" data-name="Group 15460">
                      <g id="Group_15459" data-name="Group 15459">
                        <path id="Path_29969" data-name="Path 29969" d="M-104.139,480.944c-.005,0,.029-.056.1-.14a2.521,2.521,0,0,1,.345-.324,2.455,2.455,0,0,1,.61-.354,1.911,1.911,0,0,1,.855-.14,1.919,1.919,0,0,1,1.37.7,1.661,1.661,0,0,1,.239.411.474.474,0,0,1,.047.168,3.8,3.8,0,0,0-.346-.529,1.93,1.93,0,0,0-1.319-.645,2.219,2.219,0,0,0-1.41.446C-103.965,480.769-104.125,480.958-104.139,480.944Z" transform="translate(104.14 -479.982)" fill="#f8f8f8"/>
                      </g>
                    </g>
                  </g>
                </g>
              </g>
            </g>
          </g>
          <g id="Group_15467" data-name="Group 15467" transform="translate(0.197 2.812)" opacity="0.3">
            <g id="Group_15466" data-name="Group 15466">
              <path id="Path_29970" data-name="Path 29970" d="M-100.092,476.017l-.064.6-3.633-.069.035-.6Z" transform="translate(103.789 -475.948)"/>
            </g>
          </g>
        </g>
        <g id="Group_15483" data-name="Group 15483" transform="translate(6.77 34.914)">
          <g id="Group_15470" data-name="Group 15470" transform="translate(0 0)">
            <g id="Group_15469" data-name="Group 15469">
              <path id="Path_29971" data-name="Path 29971" d="M-161.727,286.5a40.913,40.913,0,0,0-.346,5.883c.086,1.459.166,12.789.166,12.789a1.747,1.747,0,0,0-.767,1.2c0,.687-1.373,13.218-1.373,13.218l4.134.687s3.763-13.648,3.849-15.536,2.747-14.849,2.747-14.849.858,12.274.858,14.163-.037,16.421-.037,16.421a17.2,17.2,0,0,0,4.533.082s1.255-10.924,1.255-14.529v-5.837s1.459-6.781,2.146-10.214a18.794,18.794,0,0,0,0-6.707l-12.36-1.619Z" transform="translate(164.047 -281.651)" fill="#273b60"/>
            </g>
          </g>
          <g id="Group_15473" data-name="Group 15473" transform="translate(2.397 24.227)">
            <g id="Group_15472" data-name="Group 15472">
              <g id="Group_15471" data-name="Group 15471">
                <path id="Path_29972" data-name="Path 29972" d="M-148.948,403.267a5.15,5.15,0,0,0-1.573-.155,5.146,5.146,0,0,0-1.521.431,1.389,1.389,0,0,1,.406-.244,3.406,3.406,0,0,1,1.106-.291,3.413,3.413,0,0,1,1.14.09A1.4,1.4,0,0,1-148.948,403.267Z" transform="translate(152.042 -402.995)" fill="#455a64"/>
              </g>
            </g>
          </g>
          <g id="Group_15476" data-name="Group 15476" transform="translate(3.413 23.344)">
            <g id="Group_15475" data-name="Group 15475">
              <g id="Group_15474" data-name="Group 15474">
                <path id="Path_29973" data-name="Path 29973" d="M-144.62,398.678a6.587,6.587,0,0,1-1.168.012,6.58,6.58,0,0,1-1.165-.092,6.594,6.594,0,0,1,1.169-.012A6.609,6.609,0,0,1-144.62,398.678Z" transform="translate(146.953 -398.572)" fill="#455a64"/>
              </g>
            </g>
          </g>
          <g id="Group_15479" data-name="Group 15479" transform="translate(12.787 22.396)">
            <g id="Group_15478" data-name="Group 15478">
              <g id="Group_15477" data-name="Group 15477">
                <path id="Path_29974" data-name="Path 29974" d="M-98.588,397.437c0,.005-.048-.031-.122-.1a3.146,3.146,0,0,1-.289-.317,4.581,4.581,0,0,1-.7-1.228,4.58,4.58,0,0,1-.3-1.384,3.137,3.137,0,0,1,0-.429.46.46,0,0,1,.024-.156c.018,0,.011.224.046.58a5.343,5.343,0,0,0,.319,1.353,5.336,5.336,0,0,0,.665,1.22C-98.729,397.263-98.575,397.424-98.588,397.437Z" transform="translate(100.003 -393.822)" fill="#455a64"/>
              </g>
            </g>
          </g>
          <g id="Group_15482" data-name="Group 15482" transform="translate(6.377 7.742)">
            <g id="Group_15481" data-name="Group 15481">
              <g id="Group_15480" data-name="Group 15480">
                <path id="Path_29975" data-name="Path 29975" d="M-127.617,320.426a.682.682,0,0,1-.105.163c-.043.046-.1.1-.161.161s-.148.119-.239.184a5.317,5.317,0,0,1-1.585.7,4.228,4.228,0,0,1-1.725.144c-.055-.009-.108-.015-.157-.026l-.137-.04a.919.919,0,0,1-.213-.079.682.682,0,0,1-.168-.1,3.874,3.874,0,0,0,.685.169,4.583,4.583,0,0,0,1.688-.171,5.958,5.958,0,0,0,1.572-.659c.091-.06.171-.117.242-.168l.169-.144A.7.7,0,0,1-127.617,320.426Z" transform="translate(132.109 -320.426)" fill="#455a64"/>
              </g>
            </g>
          </g>
        </g>
        <g id="Group_15485" data-name="Group 15485" transform="translate(32.636 3.123)">
          <g id="Group_15484" data-name="Group 15484" transform="translate(0 0)">
            <path id="Path_29976" data-name="Path 29976" d="M-34.5,127.612a3.966,3.966,0,0,1,.386-1.708,14.766,14.766,0,0,1,1.664-2.229s1.724-1.338,1.9-1.248.238.3,0,.505-1.159,1.278-1.159,1.278.386.149.386.416a.708.708,0,0,1-.089.391s.357.173.446.381a1.087,1.087,0,0,1,.089.386.307.307,0,0,1,.238.3,1.6,1.6,0,0,1-.03.505,4.456,4.456,0,0,1-.921.832c-.267.089-.624.192-.624.192l-.234.313v.857Z" transform="translate(34.497 -122.422)" fill="#ffbe9d"/>
          </g>
        </g>
        <g id="Group_15518" data-name="Group 15518" transform="translate(0 8.261)">
          <g id="Group_15487" data-name="Group 15487" transform="translate(0 6.65)">
            <g id="Group_15486" data-name="Group 15486">
              <path id="Path_29977" data-name="Path 29977" d="M-191.7,181.465s-6.232,11-6.257,12.724c-.045,3.068,8.664,5.542,8.664,5.542l1.228-3.5-4.439-3.076,3.23-7.013Z" transform="translate(197.957 -181.465)" fill="#455a64"/>
            </g>
          </g>
          <g id="Group_15489" data-name="Group 15489" transform="translate(6.233 3.755)">
            <g id="Group_15488" data-name="Group 15488">
              <path id="Path_29978" data-name="Path 29978" d="M-166.716,169.86a5.713,5.713,0,0,1,2.8-1.152c1.7-.206,4.728-.257,4.728-.257s8.223-1.8,8.839-1.439,1.439,2.57,1.593,3.6-.7,10.814-.7,10.814,3.678,11.387,3.421,11.747a31.4,31.4,0,0,1-9.054,2.083l-.249-3.329-.53,3.1c-4.17.312-8.9.466-8.9.466s3.249-11.286,3.146-11.595S-167.151,170.96-166.716,169.86Z" transform="translate(166.741 -166.965)" fill="#fdce0c"/>
            </g>
          </g>
          <g id="Group_15491" data-name="Group 15491" transform="translate(22.625)">
            <g id="Group_15490" data-name="Group 15490">
              <path id="Path_29979" data-name="Path 29979" d="M-84.64,151.959a24.428,24.428,0,0,0,3.379,1.666c.357-.04.713-.634,1.189-.159l2.655-.476,2.655-4.835a8.5,8.5,0,0,1,2.655,1.625s-1.466,5.033-2.378,5.786a15.429,15.429,0,0,1-9.3,3.418l-.6-4.012Z" transform="translate(84.64 -148.156)" fill="#455a64"/>
            </g>
          </g>
          <g id="Group_15494" data-name="Group 15494" transform="translate(25.782 5.348)">
            <g id="Group_15493" data-name="Group 15493">
              <g id="Group_15492" data-name="Group 15492">
                <path id="Path_29980" data-name="Path 29980" d="M-68.828,179.3c-.016-.011.13-.223.3-.6a4.679,4.679,0,0,0,.241-.677,5.081,5.081,0,0,0,.149-.866,5.1,5.1,0,0,0-.018-.879,4.672,4.672,0,0,0-.138-.706c-.111-.4-.224-.627-.206-.635a.61.61,0,0,1,.092.156,3.053,3.053,0,0,1,.185.458,4.091,4.091,0,0,1,.162.715,4.683,4.683,0,0,1,.026.9,4.675,4.675,0,0,1-.16.884,4.091,4.091,0,0,1-.267.683,3.055,3.055,0,0,1-.251.425C-68.782,179.254-68.822,179.3-68.828,179.3Z" transform="translate(68.829 -174.939)" fill="#263238"/>
              </g>
            </g>
          </g>
          <g id="Group_15497" data-name="Group 15497" transform="translate(29.793 4.841)">
            <g id="Group_15496" data-name="Group 15496" transform="translate(0)">
              <g id="Group_15495" data-name="Group 15495">
                <path id="Path_29981" data-name="Path 29981" d="M-47.585,173.432a1.865,1.865,0,0,1-.65-.43,1.859,1.859,0,0,1-.5-.6,7.068,7.068,0,0,1,.568.522A7.083,7.083,0,0,1-47.585,173.432Z" transform="translate(48.736 -172.4)" fill="#263238"/>
              </g>
            </g>
          </g>
          <g id="Group_15499" data-name="Group 15499" transform="translate(8.738 21.241)">
            <g id="Group_15498" data-name="Group 15498">
              <path id="Path_29982" data-name="Path 29982" d="M-154.191,258.006s.124.45.84-.055a3.623,3.623,0,0,0,1.512-.694c.515-.494.6-.8.96-.82s1.4-.171,1.419-.161.284-.588-.041-.69a9.529,9.529,0,0,0-1.769.032l-.422.025-.071-.577.082-.523s-.883.336-.869.577c0,0-.628-.183-.712.235Z" transform="translate(154.191 -254.543)" fill="#ffbe9d"/>
            </g>
          </g>
          <g id="Group_15502" data-name="Group 15502" transform="translate(7.174 9.682)">
            <g id="Group_15501" data-name="Group 15501">
              <g id="Group_15500" data-name="Group 15500">
                <path id="Path_29983" data-name="Path 29983" d="M-159.966,202.374a1.073,1.073,0,0,1-.114-.212c-.067-.139-.16-.342-.27-.595-.22-.505-.507-1.212-.791-2s-.512-1.52-.664-2.05c-.076-.265-.134-.481-.17-.631a1.079,1.079,0,0,1-.047-.236,1.058,1.058,0,0,1,.086.224l.2.62c.169.524.408,1.246.691,2.036s.559,1.5.761,2.011l.239.607A1.072,1.072,0,0,1-159.966,202.374Z" transform="translate(162.023 -196.648)" fill="#263238"/>
              </g>
            </g>
          </g>
          <g id="Group_15505" data-name="Group 15505" transform="translate(13.795 21.131)">
            <g id="Group_15504" data-name="Group 15504">
              <g id="Group_15503" data-name="Group 15503">
                <path id="Path_29984" data-name="Path 29984" d="M-123.263,253.992a1.527,1.527,0,0,1-.145.251c-.1.159-.253.382-.455.648a11.575,11.575,0,0,1-1.813,1.877,11.553,11.553,0,0,1-2.19,1.419c-.3.148-.548.257-.723.322a1.533,1.533,0,0,1-.275.094,1.57,1.57,0,0,1,.258-.132c.17-.077.412-.2.706-.35a13.008,13.008,0,0,0,2.158-1.434,12.994,12.994,0,0,0,1.821-1.842c.208-.259.372-.473.479-.625A1.575,1.575,0,0,1-123.263,253.992Z" transform="translate(128.864 -253.992)" fill="#263238"/>
              </g>
            </g>
          </g>
          <g id="Group_15508" data-name="Group 15508" transform="translate(3.707 18.325)">
            <g id="Group_15507" data-name="Group 15507">
              <g id="Group_15506" data-name="Group 15506">
                <path id="Path_29985" data-name="Path 29985" d="M-177.371,239.944c.005.031-.47.124-1.025.334s-.975.45-.992.423a2.945,2.945,0,0,1,.955-.521A2.936,2.936,0,0,1-177.371,239.944Z" transform="translate(179.388 -239.938)" fill="#263238"/>
              </g>
            </g>
          </g>
          <g id="Group_15511" data-name="Group 15511" transform="translate(6.648 8.643)" opacity="0.3">
            <g id="Group_15510" data-name="Group 15510">
              <g id="Group_15509" data-name="Group 15509">
                <path id="Path_29986" data-name="Path 29986" d="M-163.209,195.433a2.666,2.666,0,0,1-1.415-1.809,6.806,6.806,0,0,1,.25-2.179,31.552,31.552,0,0,0,1.165,3.988" transform="translate(164.661 -191.445)"/>
              </g>
            </g>
          </g>
          <g id="Group_15514" data-name="Group 15514" transform="translate(14.418 23.241)" opacity="0.3">
            <g id="Group_15513" data-name="Group 15513">
              <g id="Group_15512" data-name="Group 15512">
                <path id="Path_29987" data-name="Path 29987" d="M-125.743,267.705a4.174,4.174,0,0,0,3.411-.341,4.175,4.175,0,0,0,1.97-2.805A39.548,39.548,0,0,1-125.743,267.705Z" transform="translate(125.743 -264.559)"/>
              </g>
            </g>
          </g>
          <g id="Group_15517" data-name="Group 15517" transform="translate(23.974 6.083)">
            <g id="Group_15516" data-name="Group 15516" transform="translate(0)">
              <g id="Group_15515" data-name="Group 15515">
                <path id="Path_29988" data-name="Path 29988" d="M-77.753,178.624a.88.88,0,0,1,.054.213c.029.139.062.341.095.592a13.223,13.223,0,0,1,.1,1.974,13.2,13.2,0,0,1-.193,1.968c-.045.249-.087.45-.122.587a.9.9,0,0,1-.063.211c-.016,0,.043-.31.113-.809a17.118,17.118,0,0,0,.162-1.959,17.143,17.143,0,0,0-.072-1.963C-77.725,178.936-77.77,178.627-77.753,178.624Z" transform="translate(77.884 -178.624)" fill="#263238"/>
              </g>
            </g>
          </g>
        </g>
        <g id="Group_15536" data-name="Group 15536" transform="translate(8.93 0)">
          <g id="Group_15521" data-name="Group 15521" transform="translate(2.12 10.852)" opacity="0.3">
            <g id="Group_15520" data-name="Group 15520">
              <g id="Group_15519" data-name="Group 15519">
                <path id="Path_29989" data-name="Path 29989" d="M-133.027,161.131l-9.588,14.772c2.34,1.175,5.292,1.76,7.5.357a1.7,1.7,0,0,0,2.523-.289,4.549,4.549,0,0,0,.672-2.788A80.316,80.316,0,0,0-133.027,161.131Z" transform="translate(142.615 -161.131)"/>
              </g>
            </g>
          </g>
          <g id="Group_15523" data-name="Group 15523" transform="translate(0 0)">
            <g id="Group_15522" data-name="Group 15522">
              <path id="Path_29990" data-name="Path 29990" d="M-145.38,107.17a3.514,3.514,0,0,0-2.86.985,7.449,7.449,0,0,0-1.692,2.606,34.723,34.723,0,0,0-1.73,5.842,53.39,53.39,0,0,0-1.547,8.847c-.182,2.992.713,4.758,2,7.464l4.563-.632-.008-.865.617.865,1.771-.275s.531-4.632.531-4.618.845,4.412.845,4.412l1.476-.137c1.468-5.821-.193-9.652.642-15.6a29.858,29.858,0,0,0,.507-4.249,5.725,5.725,0,0,0-1.359-3.954,3.227,3.227,0,0,0-3.893-.7" transform="translate(153.232 -106.78)" fill="#263238"/>
            </g>
          </g>
          <g id="Group_15526" data-name="Group 15526" transform="translate(7.931 0.219)">
            <g id="Group_15525" data-name="Group 15525">
              <g id="Group_15524" data-name="Group 15524">
                <path id="Path_29991" data-name="Path 29991" d="M-112.469,132.885a.323.323,0,0,1-.017-.066l-.038-.2-.135-.76c-.112-.661-.267-1.619-.408-2.81a30.92,30.92,0,0,1-.23-4.206,23.327,23.327,0,0,1,.185-2.484,20.821,20.821,0,0,1,.538-2.62c.5-1.764,1.209-3.368,1.551-4.913a9.819,9.819,0,0,0,.27-2.218,6.15,6.15,0,0,0-.292-1.917,5.191,5.191,0,0,0-.728-1.425,4.351,4.351,0,0,0-.843-.868,3.951,3.951,0,0,0-.65-.407l-.182-.083a.324.324,0,0,1-.061-.032.343.343,0,0,1,.065.022l.187.074a3.653,3.653,0,0,1,.666.394,4.3,4.3,0,0,1,.865.866,5.2,5.2,0,0,1,.751,1.437,6.189,6.189,0,0,1,.308,1.94,9.828,9.828,0,0,1-.263,2.24c-.34,1.558-1.043,3.166-1.544,4.92a20.977,20.977,0,0,0-.537,2.605,23.621,23.621,0,0,0-.19,2.472,31.88,31.88,0,0,0,.207,4.2c.131,1.19.275,2.15.375,2.812l.116.763.028.2A.337.337,0,0,1-112.469,132.885Z" transform="translate(113.508 -107.877)" fill="#455a64"/>
              </g>
            </g>
          </g>
          <g id="Group_15529" data-name="Group 15529" transform="translate(2.308 1.221)">
            <g id="Group_15528" data-name="Group 15528">
              <g id="Group_15527" data-name="Group 15527">
                <path id="Path_29992" data-name="Path 29992" d="M-141.428,133.871a.227.227,0,0,1-.01-.055l-.02-.163-.065-.629-.045-.454c-.013-.166-.022-.348-.034-.542-.02-.389-.056-.832-.057-1.323q-.007-.368-.013-.77c0-.268.009-.546.013-.835,0-.577.047-1.193.085-1.841a39.273,39.273,0,0,1,.553-4.185,39.257,39.257,0,0,1,1.04-4.092c.205-.616.393-1.2.6-1.741.1-.27.2-.533.3-.78l.3-.71c.183-.455.381-.853.544-1.207.083-.176.158-.341.232-.491l.21-.405.294-.559.079-.144a.231.231,0,0,1,.03-.048.242.242,0,0,1-.021.053l-.07.149-.277.567-.2.409-.224.494c-.158.356-.351.755-.529,1.211l-.292.711c-.1.248-.19.511-.292.78-.208.537-.392,1.125-.594,1.74a40.675,40.675,0,0,0-1.029,4.083,40.693,40.693,0,0,0-.56,4.172c-.04.646-.088,1.26-.094,1.836-.006.288-.02.566-.019.833s0,.524.007.769c0,.49.027.932.042,1.321q.013.291.025.542t.036.455c.02.268.035.478.046.63,0,.067.007.121.009.164A.229.229,0,0,1-141.428,133.871Z" transform="translate(141.673 -112.896)" fill="#455a64"/>
              </g>
            </g>
          </g>
          <g id="Group_15532" data-name="Group 15532" transform="translate(3.707 3.508)">
            <g id="Group_15531" data-name="Group 15531">
              <g id="Group_15530" data-name="Group 15530">
                <path id="Path_29993" data-name="Path 29993" d="M-133.288,146.553a.246.246,0,0,1-.021-.055l-.053-.164-.192-.634-.137-.459c-.049-.168-.088-.354-.138-.552-.09-.4-.219-.847-.3-1.355l-.148-.794c-.055-.276-.082-.567-.126-.867s-.093-.609-.114-.931l-.084-.991a31.994,31.994,0,0,1,.032-4.424,34.915,34.915,0,0,1,.662-4.376l.225-.969c.071-.314.164-.614.241-.906.152-.586.328-1.121.483-1.612s.319-.926.453-1.312.265-.713.374-.979l.25-.613.067-.159a.237.237,0,0,1,.026-.053.259.259,0,0,1-.017.057l-.058.162-.231.62c-.1.268-.229.6-.357.984s-.295.821-.438,1.315-.322,1.027-.47,1.612c-.075.292-.166.591-.236.905l-.22.967a35.886,35.886,0,0,0-.652,4.364,32.772,32.772,0,0,0-.04,4.409l.079.988c.02.321.075.629.109.929s.067.59.12.865l.141.793c.079.508.2.956.287,1.355.047.2.083.385.129.553l.128.461.173.638.043.167A.269.269,0,0,1-133.288,146.553Z" transform="translate(134.665 -124.351)" fill="#455a64"/>
              </g>
            </g>
          </g>
          <g id="Group_15535" data-name="Group 15535" transform="translate(8.239 0.054)">
            <g id="Group_15534" data-name="Group 15534">
              <g id="Group_15533" data-name="Group 15533">
                <path id="Path_29994" data-name="Path 29994" d="M-108.716,129.893a.3.3,0,0,1-.031-.057l-.083-.172-.132-.282-.163-.392a14.231,14.231,0,0,1-.764-2.59,14.815,14.815,0,0,1-.235-3.995,14.854,14.854,0,0,1,.373-2.339c.19-.8.441-1.613.7-2.443s.5-1.644.678-2.441a12.245,12.245,0,0,0,.314-2.33,7.548,7.548,0,0,0-.217-2.108,5.484,5.484,0,0,0-.745-1.684,4.7,4.7,0,0,0-2-1.733,4.2,4.2,0,0,0-.695-.223l-.186-.038a.3.3,0,0,1-.063-.017.291.291,0,0,1,.065.006l.189.028a3.794,3.794,0,0,1,.706.206,4.673,4.673,0,0,1,2.044,1.729,5.526,5.526,0,0,1,.767,1.7,7.589,7.589,0,0,1,.229,2.133,12.225,12.225,0,0,1-.31,2.35c-.178.8-.423,1.618-.678,2.45s-.505,1.641-.7,2.437a14.945,14.945,0,0,0-.376,2.323,14.986,14.986,0,0,0,.211,3.974,14.989,14.989,0,0,0,.73,2.589l.153.394.122.285.073.176A.28.28,0,0,1-108.716,129.893Z" transform="translate(111.967 -107.049)" fill="#455a64"/>
              </g>
            </g>
          </g>
        </g>
      </g>
      <text id="Business" transform="translate(76.861 42.721)" fill="#f16427" font-size="1" font-family="Poppins-Medium, Poppins" font-weight="500" letter-spacing="-0.044em"><tspan x="0" y="0">Business</tspan></text>
      <ellipse id="Ellipse_814" data-name="Ellipse 814" cx="5.513" cy="0.373" rx="5.513" ry="0.373" transform="translate(39.297 43.857)" opacity="0.15"/>
      <path id="Path_31604" data-name="Path 31604" d="M870.74,583.721c0,.028,0,.056,0,.083h0a1.025,1.025,0,0,1-.029.169.931.931,0,0,1-.094.232h0a.963.963,0,0,1-.162.214l-.019.018-.026.024a.918.918,0,0,1-.61.232h-7.552a.958.958,0,0,1-.942-.973l.464-7.8a.958.958,0,0,1,.942-.973h6.624a.958.958,0,0,1,.942.973l.233,3.928.017.274.057.966.092,1.543.017.278.016.275Z" transform="translate(-821.205 -540.464)" fill="#f16427"/>
      <path id="Path_31605" data-name="Path 31605" d="M862.67,584.694h-.421a.958.958,0,0,1-.942-.973l.464-7.8a.958.958,0,0,1,.942-.973h.421a.958.958,0,0,0-.942.973l-.464,7.8A.958.958,0,0,0,862.67,584.694Z" transform="translate(-821.207 -540.463)" fill="#d65227"/>
      <g id="Group_16516" data-name="Group 16516" transform="translate(42.477 38.147)">
        <g id="Group_3332" data-name="Group 3332" transform="translate(1.7 3.133)">
          <path id="Path_11494" data-name="Path 11494" d="M911.248,657.66a.316.316,0,1,0,.316.316A.316.316,0,0,0,911.248,657.66Z" transform="translate(-910.932 -657.66)" fill="#fff"/>
          <path id="Path_11495" data-name="Path 11495" d="M922.943,657.66a.316.316,0,1,0,.316.316A.316.316,0,0,0,922.943,657.66Z" transform="translate(-921.666 -657.66)" fill="#fff"/>
        </g>
        <g id="Group_3333" data-name="Group 3333">
          <path id="Path_11496" data-name="Path 11496" d="M900.637,630.877a.236.236,0,0,0-.227.175,1.535,1.535,0,0,1-2.958,0,.236.236,0,0,0-.227-.175h0a.237.237,0,0,0-.228.3,2.007,2.007,0,0,0,3.868,0A.237.237,0,0,0,900.637,630.877Z" transform="translate(-896.435 -629.945)" fill="#fff"/>
          <path id="Path_11497" data-name="Path 11497" d="M938.939,619.531a.354.354,0,1,0,.354.354A.354.354,0,0,0,938.939,619.531Z" transform="translate(-934.613 -619.531)" fill="#fff"/>
          <path id="Path_11498" data-name="Path 11498" d="M891,620.561a.353.353,0,0,1,.233.122.157.157,0,0,0,.143.058.185.185,0,0,0,.157-.165.18.18,0,0,0-.047-.141.723.723,0,0,0-1.241.464.18.18,0,0,0,.054.139.184.184,0,0,0,.226.028.157.157,0,0,0,.074-.136.36.36,0,0,1,.033-.143h0l.007-.014v0a.353.353,0,0,1,.361-.21Z" transform="translate(-890.246 -620.149)" fill="#fff"/>
        </g>
      </g>
      <path id="Path_31606" data-name="Path 31606" d="M889.054,554.406a2.468,2.468,0,0,1,2.315-2.013,2.252,2.252,0,0,1,2.173,2.011.319.319,0,1,1-.316.062,1.923,1.923,0,0,0-1.858-1.748,2.143,2.143,0,0,0-2,1.746.318.318,0,1,1-.32-.058Z" transform="translate(-846.485 -519.763)" fill="#fdce0c"/>
      <path id="Path_31607" data-name="Path 31607" d="M995.033,594.518h.212a.33.33,0,0,1,.244.091.372.372,0,0,1,0,.488.32.32,0,0,1-.244.1h-.212v1.564a.457.457,0,0,0,.032.188.269.269,0,0,0,.091.112.39.39,0,0,0,.129.059.907.907,0,0,0,.153.023.287.287,0,0,1,.209.1.377.377,0,0,1,.073.244.283.283,0,0,1-.1.226.443.443,0,0,1-.294.085,1.2,1.2,0,0,1-.382-.059.811.811,0,0,1-.309-.185.846.846,0,0,1-.206-.324,1.332,1.332,0,0,1-.074-.468v-1.57a.3.3,0,0,1-.209-.112.352.352,0,0,1-.073-.224.358.358,0,0,1,.073-.232.286.286,0,0,1,.209-.1v-.994a.325.325,0,0,1,.1-.25.334.334,0,0,1,.238-.091.315.315,0,0,1,.341.341Z" transform="translate(-943.065 -557.207)" fill="#273b60"/>
      <path id="Path_31608" data-name="Path 31608" d="M1017.81,611.124a.345.345,0,0,1-.579.25.326.326,0,0,1-.1-.25v-.018a1.636,1.636,0,0,1-.191.162,1.3,1.3,0,0,1-.241.138,1.61,1.61,0,0,1-.279.094,1.258,1.258,0,0,1-.294.035,1.754,1.754,0,0,1-.694-.135,1.66,1.66,0,0,1-.906-.915,1.817,1.817,0,0,1,0-1.347,1.682,1.682,0,0,1,.362-.55,1.74,1.74,0,0,1,.55-.374,1.706,1.706,0,0,1,.688-.138,1.428,1.428,0,0,1,.582.112,1.24,1.24,0,0,1,.423.3.319.319,0,0,1,.1-.244.373.373,0,0,1,.488,0,.33.33,0,0,1,.091.244Zm-1.682-2.37a1.033,1.033,0,0,0-.747.309,1.078,1.078,0,0,0-.224.338,1.04,1.04,0,0,0-.082.412,1.02,1.02,0,0,0,.082.409,1.042,1.042,0,0,0,.556.556,1.035,1.035,0,0,0,.415.082.978.978,0,0,0,.715-.306,1.052,1.052,0,0,0,.209-.332,1.092,1.092,0,0,0,.076-.409,1.114,1.114,0,0,0-.076-.412,1.077,1.077,0,0,0-.209-.338.952.952,0,0,0-.318-.226A.965.965,0,0,0,1016.128,608.754Z" transform="translate(-961.72 -570.873)" fill="#273b60"/>
      <path id="Path_31609" data-name="Path 31609" d="M1054.167,610.781a.346.346,0,0,1,.579-.25.327.327,0,0,1,.1.25v3.293a1.343,1.343,0,0,1-.073.467.851.851,0,0,1-.206.323.819.819,0,0,1-.309.185,1.2,1.2,0,0,1-.382.059.443.443,0,0,1-.294-.085.283.283,0,0,1-.1-.226.377.377,0,0,1,.073-.244.286.286,0,0,1,.209-.1.958.958,0,0,0,.15-.023.386.386,0,0,0,.132-.059.27.27,0,0,0,.091-.112.459.459,0,0,0,.032-.188Z" transform="translate(-997.589 -573.041)" fill="#273b60"/>
      <path id="Path_31610" data-name="Path 31610" d="M1079.007,611.124a.346.346,0,0,1-.579.25.326.326,0,0,1-.1-.25v-.018a1.636,1.636,0,0,1-.191.162,1.3,1.3,0,0,1-.241.138,1.617,1.617,0,0,1-.279.094,1.26,1.26,0,0,1-.294.035,1.753,1.753,0,0,1-.694-.135,1.658,1.658,0,0,1-.906-.915,1.817,1.817,0,0,1,0-1.347,1.682,1.682,0,0,1,.362-.55,1.737,1.737,0,0,1,.55-.374,1.707,1.707,0,0,1,.688-.138,1.427,1.427,0,0,1,.582.112,1.239,1.239,0,0,1,.423.3.32.32,0,0,1,.1-.244.373.373,0,0,1,.488,0,.331.331,0,0,1,.091.244Zm-1.682-2.37a1.034,1.034,0,0,0-.747.309,1.082,1.082,0,0,0-.223.338,1.04,1.04,0,0,0-.082.412,1.02,1.02,0,0,0,.082.409,1.04,1.04,0,0,0,.556.556,1.036,1.036,0,0,0,.415.082.978.978,0,0,0,.714-.306,1.052,1.052,0,0,0,.209-.332,1.092,1.092,0,0,0,.077-.409,1.114,1.114,0,0,0-.077-.412,1.078,1.078,0,0,0-.209-.338.951.951,0,0,0-.318-.226A.965.965,0,0,0,1077.325,608.754Z" transform="translate(-1017.889 -570.873)" fill="#273b60"/>
      <path id="Path_31611" data-name="Path 31611" d="M1124.656,611.13a.329.329,0,0,1-.091.247.382.382,0,0,1-.488,0,.317.317,0,0,1-.1-.247v-2.682a.3.3,0,0,1,.077-.215.272.272,0,0,1,.206-.079.3.3,0,0,1,.335.271.78.78,0,0,1,.338-.265,1.1,1.1,0,0,1,.415-.082,1.467,1.467,0,0,1,.288.029,1.341,1.341,0,0,1,.28.088,1.021,1.021,0,0,1,.247.156.887.887,0,0,1,.191.226.976.976,0,0,1,.453-.382,1.456,1.456,0,0,1,.564-.118,1.229,1.229,0,0,1,.491.1,1.37,1.37,0,0,1,.42.282,1.4,1.4,0,0,1,.294.429,1.32,1.32,0,0,1,.112.544v1.694a.328.328,0,0,1-.091.247.378.378,0,0,1-.485,0,.322.322,0,0,1-.094-.247v-1.694a.68.68,0,0,0-.053-.271.716.716,0,0,0-.144-.218.674.674,0,0,0-.209-.147.583.583,0,0,0-.241-.053.638.638,0,0,0-.253.053.775.775,0,0,0-.385.365.6.6,0,0,0-.062.271v1.694a.329.329,0,0,1-.091.247.345.345,0,0,1-.25.088.332.332,0,0,1-.235-.088.323.323,0,0,1-.094-.247v-1.694a.651.651,0,0,0-.056-.271.77.77,0,0,0-.147-.218.679.679,0,0,0-.209-.147.583.583,0,0,0-.241-.053.647.647,0,0,0-.25.053.718.718,0,0,0-.223.147.8.8,0,0,0-.159.218.6.6,0,0,0-.062.271Z" transform="translate(-1062.297 -570.873)" fill="#273b60"/>
      <path id="Path_31612" data-name="Path 31612" d="M1189,611.13a.329.329,0,0,1-.091.247.382.382,0,0,1-.488,0,.317.317,0,0,1-.1-.247v-2.682a.3.3,0,0,1,.077-.215.272.272,0,0,1,.206-.079.3.3,0,0,1,.335.271.78.78,0,0,1,.338-.265,1.1,1.1,0,0,1,.415-.082,1.467,1.467,0,0,1,.288.029,1.344,1.344,0,0,1,.279.088,1.02,1.02,0,0,1,.247.156.883.883,0,0,1,.191.226.976.976,0,0,1,.453-.382,1.458,1.458,0,0,1,.565-.118,1.227,1.227,0,0,1,.491.1,1.364,1.364,0,0,1,.42.282,1.393,1.393,0,0,1,.294.429,1.32,1.32,0,0,1,.112.544v1.694a.328.328,0,0,1-.091.247.378.378,0,0,1-.485,0,.323.323,0,0,1-.094-.247v-1.694a.685.685,0,0,0-.053-.271.72.72,0,0,0-.144-.218.68.68,0,0,0-.209-.147.584.584,0,0,0-.241-.053.637.637,0,0,0-.253.053.765.765,0,0,0-.224.147.773.773,0,0,0-.162.218.6.6,0,0,0-.062.271v1.694a.328.328,0,0,1-.091.247.345.345,0,0,1-.25.088.332.332,0,0,1-.235-.088.323.323,0,0,1-.094-.247v-1.694a.648.648,0,0,0-.056-.271.762.762,0,0,0-.147-.218.677.677,0,0,0-.209-.147.584.584,0,0,0-.241-.053.646.646,0,0,0-.25.053.714.714,0,0,0-.223.147.794.794,0,0,0-.159.218.594.594,0,0,0-.062.271Z" transform="translate(-1121.354 -570.873)" fill="#273b60"/>
      <path id="Path_31613" data-name="Path 31613" d="M1255.167,612.32a.317.317,0,0,1-.341-.294.825.825,0,0,1-.318.271,1.054,1.054,0,0,1-.476.1,1.464,1.464,0,0,1-.57-.106,1.231,1.231,0,0,1-.429-.294,1.28,1.28,0,0,1-.271-.453,1.727,1.727,0,0,1-.094-.582v-1.617a.328.328,0,0,1,.091-.247.378.378,0,0,1,.485,0,.323.323,0,0,1,.094.247v1.617a.807.807,0,0,0,.185.556.69.69,0,0,0,.544.209.667.667,0,0,0,.535-.206.83.83,0,0,0,.177-.559v-1.617a.327.327,0,0,1,.091-.247.344.344,0,0,1,.25-.088.34.34,0,0,1,.238.088.317.317,0,0,1,.1.247v2.682a.279.279,0,0,1-.085.215A.288.288,0,0,1,1255.167,612.32Z" transform="translate(-1180.411 -571.727)" fill="#273b60"/>
      <path id="Path_31614" data-name="Path 31614" d="M1294.212,597.459a.315.315,0,0,1-.341.341.334.334,0,0,1-.238-.091.326.326,0,0,1-.1-.25v-3.934a.318.318,0,0,1,.1-.244.372.372,0,0,1,.488,0,.329.329,0,0,1,.091.244Z" transform="translate(-1217.921 -557.207)" fill="#273b60"/>
      <path id="Path_31615" data-name="Path 31615" d="M1324.708,612.606a.33.33,0,0,1-.091.244.338.338,0,0,1-.25.091.343.343,0,0,1-.244-.091.319.319,0,0,1-.1-.244v-4.158a.278.278,0,0,1,.085-.215.287.287,0,0,1,.2-.079.3.3,0,0,1,.256.1.739.739,0,0,1,.115.285,1.154,1.154,0,0,1,.188-.171,1.606,1.606,0,0,1,.244-.147,1.471,1.471,0,0,1,.282-.1,1.245,1.245,0,0,1,.309-.038,1.631,1.631,0,0,1,.65.135,1.809,1.809,0,0,1,.941.92,1.644,1.644,0,0,1,0,1.347,1.809,1.809,0,0,1-.941.92,1.631,1.631,0,0,1-.65.135,1.412,1.412,0,0,1-.588-.115,1.147,1.147,0,0,1-.411-.3Zm1-1.747a1.041,1.041,0,0,0,.412-.082,1.023,1.023,0,0,0,.335-.226,1.094,1.094,0,0,0,.223-.335,1.056,1.056,0,0,0,0-.817,1.1,1.1,0,0,0-.223-.335,1.025,1.025,0,0,0-.335-.226,1.042,1.042,0,0,0-.412-.082.947.947,0,0,0-.394.082.992.992,0,0,0-.317.226,1.06,1.06,0,0,0-.212.335,1.133,1.133,0,0,0,0,.817,1.059,1.059,0,0,0,.212.335.99.99,0,0,0,.317.226A.947.947,0,0,0,1325.708,610.86Z" transform="translate(-1245.906 -570.873)" fill="#273b60"/>
      <path id="Path_31616" data-name="Path 31616" d="M1371.726,595.718h.253l.553-1.041a.334.334,0,0,1,.135-.144.356.356,0,0,1,.171-.044.363.363,0,0,1,.238.091.29.29,0,0,1,.109.232.38.38,0,0,1-.053.188l-.606,1.047.629,1.235a.428.428,0,0,1,.041.182.306.306,0,0,1-.106.244.352.352,0,0,1-.235.091.332.332,0,0,1-.173-.047.322.322,0,0,1-.127-.153l-.6-1.264h-.229v1.123a.345.345,0,0,1-.579.25.326.326,0,0,1-.1-.25v-3.934a.318.318,0,0,1,.1-.244.371.371,0,0,1,.488,0,.329.329,0,0,1,.091.244Z" transform="translate(-1289.067 -557.207)" fill="#273b60"/>
      <ellipse id="Ellipse_815" data-name="Ellipse 815" cx="0.341" cy="0.341" rx="0.341" ry="0.341" transform="translate(56.572 36.45)" fill="#273b60"/>
      <ellipse id="Ellipse_816" data-name="Ellipse 816" cx="0.341" cy="0.341" rx="0.341" ry="0.341" transform="translate(76.864 39.903)" fill="#273b60"/>
    </g>
  </g>
</svg>
