<svg xmlns="http://www.w3.org/2000/svg" width="280.448" height="75.045" viewBox="0 0 280.448 75.045">
  <g id="Group_18344" data-name="Group 18344" transform="translate(-45.512 -121)">
    <g id="Group_17486" data-name="Group 17486">
      <text id="Shopping_Made_Easy" data-name="Shopping Made Easy" transform="translate(212.826 192.045)" fill="#f16427" font-size="11" font-family="Poppins-Medium, Poppins" font-weight="500" letter-spacing="-0.044em"><tspan x="0" y="0">Shopping Made Easy</tspan></text>
      <ellipse id="Ellipse_116" data-name="Ellipse 116" cx="34.484" cy="2.336" rx="34.484" ry="2.336" transform="translate(45.512 191.233)" opacity="0.15"/>
      <path id="Path_11492" data-name="Path 11492" d="M920.331,629.834c0,.174-.005.347-.021.516v.006a6.407,6.407,0,0,1-.179,1.058,5.85,5.85,0,0,1-.59,1.454v.005a6.017,6.017,0,0,1-1.011,1.338c-.037.036-.074.073-.116.11l-.163.153a5.741,5.741,0,0,1-3.813,1.448H867.2a6,6,0,0,1-5.894-6.089l2.9-48.8a6,6,0,0,1,5.894-6.089h41.435a6,6,0,0,1,5.894,6.089l1.459,24.57.105,1.712.358,6.042.574,9.655.105,1.738.1,1.717Z" transform="translate(-810.774 -442.355)" fill="#f16427"/>
      <path id="Path_11493" data-name="Path 11493" d="M869.836,635.922H867.2a5.993,5.993,0,0,1-5.893-6.089l2.9-48.8a5.993,5.993,0,0,1,5.893-6.089h2.636a5.993,5.993,0,0,0-5.893,6.089l-2.9,48.8A5.993,5.993,0,0,0,869.836,635.922Z" transform="translate(-810.775 -442.354)" fill="#d65227"/>
      <g id="Group_3334" data-name="Group 3334" transform="translate(65.406 155.508)">
        <g id="Group_3332" data-name="Group 3332" transform="translate(10.632 19.598)">
          <path id="Path_11494" data-name="Path 11494" d="M912.911,657.66a1.979,1.979,0,1,0,1.979,1.979A1.979,1.979,0,0,0,912.911,657.66Z" transform="translate(-910.932 -657.66)" fill="#fff"/>
          <path id="Path_11495" data-name="Path 11495" d="M924.606,657.66a1.979,1.979,0,1,0,1.979,1.979A1.979,1.979,0,0,0,924.606,657.66Z" transform="translate(-916.616 -657.66)" fill="#fff"/>
        </g>
        <g id="Group_3333" data-name="Group 3333">
          <path id="Path_11496" data-name="Path 11496" d="M919.811,630.877a1.477,1.477,0,0,0-1.419,1.1,9.6,9.6,0,0,1-18.5,0,1.477,1.477,0,0,0-1.419-1.1h0a1.481,1.481,0,0,0-1.426,1.873,12.553,12.553,0,0,0,24.194,0A1.481,1.481,0,0,0,919.811,630.877Z" transform="translate(-893.523 -625.045)" fill="#fff"/>
          <path id="Path_11497" data-name="Path 11497" d="M940.8,619.531a2.215,2.215,0,1,0,2.215,2.215A2.215,2.215,0,0,0,940.8,619.531Z" transform="translate(-913.74 -619.531)" fill="#fff"/>
          <path id="Path_11498" data-name="Path 11498" d="M894.967,622.432a2.21,2.21,0,0,1,1.456.765.986.986,0,0,0,.9.366,1.161,1.161,0,0,0,.981-1.033,1.125,1.125,0,0,0-.293-.886,4.521,4.521,0,0,0-7.76,2.9,1.127,1.127,0,0,0,.338.868,1.151,1.151,0,0,0,1.411.174.985.985,0,0,0,.462-.849,2.258,2.258,0,0,1,.2-.9v0c.013-.028.027-.057.041-.085l.006-.011a2.209,2.209,0,0,1,2.258-1.312Z" transform="translate(-890.246 -619.858)" fill="#fff"/>
        </g>
      </g>
      <path id="Path_11499" data-name="Path 11499" d="M890.144,564.983c1.023-3.727,4.5-12.589,14.484-12.589,9.962,0,12.824,8.784,13.594,12.577a2,2,0,1,1-1.975.391c-.628-3.3-3.012-10.933-11.619-10.933-8.484,0-11.543,7.571-12.481,10.921a1.991,1.991,0,1,1-2-.366Z" transform="translate(-824.16 -431.393)" fill="#fdce0c"/>
      <path id="Path_11511" data-name="Path 11511" d="M1000.07,601.5h1.325a2.062,2.062,0,0,1,1.526.571,2.329,2.329,0,0,1,0,3.053,2,2,0,0,1-1.526.607h-1.325v9.785a2.863,2.863,0,0,0,.2,1.177,1.683,1.683,0,0,0,.57.7,2.43,2.43,0,0,0,.809.369,5.669,5.669,0,0,0,.957.147,1.794,1.794,0,0,1,1.306.644,2.362,2.362,0,0,1,.46,1.527,1.77,1.77,0,0,1-.625,1.417,2.771,2.771,0,0,1-1.839.533,7.515,7.515,0,0,1-2.392-.368,5.073,5.073,0,0,1-1.931-1.158,5.3,5.3,0,0,1-1.288-2.024,8.346,8.346,0,0,1-.46-2.925v-9.822a1.888,1.888,0,0,1-1.306-.7,2.2,2.2,0,0,1-.459-1.4,2.237,2.237,0,0,1,.459-1.453,1.794,1.794,0,0,1,1.306-.644v-6.218a2.037,2.037,0,0,1,.607-1.562,2.1,2.1,0,0,1,3.624,1.563Z" transform="translate(-875.302 -451.221)" fill="#273b60"/>
      <path id="Path_11512" data-name="Path 11512" d="M1035.736,627.134a2.161,2.161,0,0,1-3.624,1.564,2.043,2.043,0,0,1-.607-1.564v-.11a10.206,10.206,0,0,1-1.195,1.011,8.194,8.194,0,0,1-1.509.864,10.1,10.1,0,0,1-1.747.59,7.873,7.873,0,0,1-1.84.22,10.97,10.97,0,0,1-4.341-.845,10.375,10.375,0,0,1-5.665-5.721,11.362,11.362,0,0,1,0-8.424,10.537,10.537,0,0,1,2.262-3.44,10.891,10.891,0,0,1,3.44-2.336,10.669,10.669,0,0,1,4.3-.864,8.93,8.93,0,0,1,3.642.7,7.736,7.736,0,0,1,2.648,1.876,2,2,0,0,1,.607-1.527,2.331,2.331,0,0,1,3.053,0,2.066,2.066,0,0,1,.57,1.527Zm-10.521-14.826a6.461,6.461,0,0,0-4.672,1.932,6.744,6.744,0,0,0-1.4,2.115,6.509,6.509,0,0,0-.515,2.575,6.384,6.384,0,0,0,.515,2.558,6.519,6.519,0,0,0,3.476,3.476,6.482,6.482,0,0,0,2.594.515,6.117,6.117,0,0,0,4.47-1.913,6.574,6.574,0,0,0,1.306-2.078,6.842,6.842,0,0,0,.478-2.558,6.978,6.978,0,0,0-.478-2.575,6.741,6.741,0,0,0-1.306-2.115,5.942,5.942,0,0,0-1.987-1.417A6.036,6.036,0,0,0,1025.215,612.308Z" transform="translate(-885.18 -458.457)" fill="#273b60"/>
      <path id="Path_11513" data-name="Path 11513" d="M1057.783,612.574a2.162,2.162,0,0,1,3.624-1.564,2.044,2.044,0,0,1,.607,1.564v20.6a8.376,8.376,0,0,1-.46,2.925,5.321,5.321,0,0,1-1.287,2.024,5.108,5.108,0,0,1-1.932,1.159,7.519,7.519,0,0,1-2.391.367,2.774,2.774,0,0,1-1.84-.533,1.772,1.772,0,0,1-.625-1.417,2.362,2.362,0,0,1,.46-1.526,1.791,1.791,0,0,1,1.306-.644,6.06,6.06,0,0,0,.938-.147,2.41,2.41,0,0,0,.828-.369,1.694,1.694,0,0,0,.57-.7,2.877,2.877,0,0,0,.2-1.178Z" transform="translate(-904.174 -459.605)" fill="#273b60"/>
      <path id="Path_11514" data-name="Path 11514" d="M1096.933,627.134a1.971,1.971,0,0,1-2.134,2.134,2.1,2.1,0,0,1-1.491-.57,2.042,2.042,0,0,1-.607-1.564v-.11a10.255,10.255,0,0,1-1.2,1.011,8.18,8.18,0,0,1-1.509.864,10.112,10.112,0,0,1-1.748.59,7.871,7.871,0,0,1-1.839.22,10.968,10.968,0,0,1-4.341-.845,10.37,10.37,0,0,1-5.665-5.721,11.361,11.361,0,0,1,0-8.424,10.524,10.524,0,0,1,2.262-3.44,10.887,10.887,0,0,1,3.44-2.336,10.67,10.67,0,0,1,4.3-.864,8.927,8.927,0,0,1,3.641.7,7.738,7.738,0,0,1,2.649,1.876,2,2,0,0,1,.607-1.527,2.332,2.332,0,0,1,3.054,0,2.068,2.068,0,0,1,.57,1.527Zm-10.521-14.826a6.461,6.461,0,0,0-4.673,1.932,6.752,6.752,0,0,0-1.4,2.115,6.514,6.514,0,0,0-.516,2.575,6.388,6.388,0,0,0,.516,2.558,6.517,6.517,0,0,0,3.476,3.476,6.483,6.483,0,0,0,2.594.515,6.118,6.118,0,0,0,4.47-1.913,6.576,6.576,0,0,0,1.306-2.078,6.84,6.84,0,0,0,.479-2.558,6.976,6.976,0,0,0-.479-2.575,6.743,6.743,0,0,0-1.306-2.115,5.943,5.943,0,0,0-1.987-1.417A6.035,6.035,0,0,0,1086.412,612.308Z" transform="translate(-914.923 -458.457)" fill="#273b60"/>
      <path id="Path_11515" data-name="Path 11515" d="M1128.21,627.171a2.055,2.055,0,0,1-.57,1.545,2.389,2.389,0,0,1-3.054,0,1.985,1.985,0,0,1-.606-1.545V610.4a1.856,1.856,0,0,1,.478-1.344,1.7,1.7,0,0,1,1.287-.5,1.886,1.886,0,0,1,2.1,1.692,4.882,4.882,0,0,1,2.115-1.656,6.851,6.851,0,0,1,2.594-.514,9.19,9.19,0,0,1,1.8.183,8.382,8.382,0,0,1,1.748.552,6.405,6.405,0,0,1,1.545.975,5.544,5.544,0,0,1,1.2,1.415,6.1,6.1,0,0,1,2.833-2.391,9.119,9.119,0,0,1,3.531-.735,7.693,7.693,0,0,1,3.073.643,8.562,8.562,0,0,1,2.63,1.766,8.716,8.716,0,0,1,1.84,2.686,8.249,8.249,0,0,1,.7,3.4v10.6a2.051,2.051,0,0,1-.57,1.545,2.363,2.363,0,0,1-3.035,0,2.015,2.015,0,0,1-.589-1.545v-10.6a4.258,4.258,0,0,0-.331-1.693,4.474,4.474,0,0,0-.9-1.36,4.224,4.224,0,0,0-1.306-.92,3.649,3.649,0,0,0-1.509-.331,3.992,3.992,0,0,0-1.582.331,4.847,4.847,0,0,0-2.409,2.28,3.735,3.735,0,0,0-.386,1.693v10.6a2.053,2.053,0,0,1-.57,1.545,2.158,2.158,0,0,1-1.563.552,2.072,2.072,0,0,1-1.472-.552,2.017,2.017,0,0,1-.589-1.545v-10.6a4.067,4.067,0,0,0-.349-1.693,4.781,4.781,0,0,0-.92-1.36,4.235,4.235,0,0,0-1.306-.92,3.653,3.653,0,0,0-1.508-.331,4.039,4.039,0,0,0-1.564.331,4.483,4.483,0,0,0-1.4.92,5.009,5.009,0,0,0-.993,1.36,3.739,3.739,0,0,0-.386,1.693Z" transform="translate(-938.438 -458.457)" fill="#273b60"/>
      <path id="Path_11516" data-name="Path 11516" d="M1192.553,627.171a2.053,2.053,0,0,1-.57,1.545,2.388,2.388,0,0,1-3.054,0,1.982,1.982,0,0,1-.607-1.545V610.4a1.855,1.855,0,0,1,.478-1.344,1.7,1.7,0,0,1,1.288-.5,1.885,1.885,0,0,1,2.1,1.692,4.885,4.885,0,0,1,2.115-1.656,6.856,6.856,0,0,1,2.594-.514,9.19,9.19,0,0,1,1.8.183,8.39,8.39,0,0,1,1.748.552,6.389,6.389,0,0,1,1.545.975,5.54,5.54,0,0,1,1.2,1.415,6.105,6.105,0,0,1,2.833-2.391,9.118,9.118,0,0,1,3.532-.735,7.691,7.691,0,0,1,3.072.643,8.557,8.557,0,0,1,2.63,1.766,8.71,8.71,0,0,1,1.84,2.686,8.255,8.255,0,0,1,.7,3.4v10.6a2.053,2.053,0,0,1-.569,1.545,2.364,2.364,0,0,1-3.036,0,2.017,2.017,0,0,1-.588-1.545v-10.6a4.256,4.256,0,0,0-.332-1.693,4.474,4.474,0,0,0-.9-1.36,4.234,4.234,0,0,0-1.306-.92,3.65,3.65,0,0,0-1.509-.331,3.987,3.987,0,0,0-1.582.331,4.85,4.85,0,0,0-2.41,2.28,3.743,3.743,0,0,0-.386,1.693v10.6a2.054,2.054,0,0,1-.57,1.545,2.159,2.159,0,0,1-1.563.552,2.071,2.071,0,0,1-1.472-.552,2.015,2.015,0,0,1-.589-1.545v-10.6a4.058,4.058,0,0,0-.35-1.693,4.761,4.761,0,0,0-.92-1.36,4.226,4.226,0,0,0-1.306-.92,3.649,3.649,0,0,0-1.508-.331,4.038,4.038,0,0,0-1.564.331,4.472,4.472,0,0,0-1.4.92,4.991,4.991,0,0,0-.993,1.36,3.729,3.729,0,0,0-.387,1.693Z" transform="translate(-969.71 -458.457)" fill="#273b60"/>
      <path id="Path_11517" data-name="Path 11517" d="M1268.3,629.72a1.979,1.979,0,0,1-2.133-1.84,5.165,5.165,0,0,1-1.987,1.692,6.6,6.6,0,0,1-2.98.626,9.157,9.157,0,0,1-3.568-.663,7.7,7.7,0,0,1-2.686-1.839,8.019,8.019,0,0,1-1.693-2.832,10.818,10.818,0,0,1-.588-3.643V611.105a2.051,2.051,0,0,1,.57-1.545,2.365,2.365,0,0,1,3.035,0,2.018,2.018,0,0,1,.589,1.545v10.116a5.046,5.046,0,0,0,1.159,3.477,4.311,4.311,0,0,0,3.4,1.3,4.171,4.171,0,0,0,3.348-1.287,5.2,5.2,0,0,0,1.1-3.5V611.105a2.049,2.049,0,0,1,.57-1.545,2.39,2.39,0,0,1,3.054,0,1.984,1.984,0,0,1,.607,1.545V627.88a1.745,1.745,0,0,1-.533,1.342A1.8,1.8,0,0,1,1268.3,629.72Z" transform="translate(-1000.983 -458.909)" fill="#273b60"/>
      <path id="Path_11518" data-name="Path 11518" d="M1297.766,619.9a1.971,1.971,0,0,1-2.134,2.134,2.093,2.093,0,0,1-1.49-.57,2.041,2.041,0,0,1-.607-1.564V595.287a1.992,1.992,0,0,1,.607-1.527,2.325,2.325,0,0,1,3.053,0,2.062,2.062,0,0,1,.57,1.527Z" transform="translate(-1020.845 -451.221)" fill="#273b60"/>
      <path id="Path_11519" data-name="Path 11519" d="M1328.293,636.4a2.064,2.064,0,0,1-.571,1.527,2.116,2.116,0,0,1-1.564.57,2.145,2.145,0,0,1-1.526-.57,2,2,0,0,1-.607-1.527V610.4a1.744,1.744,0,0,1,.534-1.344,1.8,1.8,0,0,1,1.27-.5,1.887,1.887,0,0,1,1.6.606,4.614,4.614,0,0,1,.718,1.784,7.152,7.152,0,0,1,1.177-1.067,9.974,9.974,0,0,1,1.526-.92,9.2,9.2,0,0,1,1.766-.644,7.794,7.794,0,0,1,1.931-.238,10.2,10.2,0,0,1,4.066.845,11.328,11.328,0,0,1,5.886,5.758,10.289,10.289,0,0,1,0,8.424,11.329,11.329,0,0,1-5.886,5.758,10.2,10.2,0,0,1-4.066.845,8.828,8.828,0,0,1-3.679-.717,7.182,7.182,0,0,1-2.575-1.895Zm6.254-10.926a6.527,6.527,0,0,0,2.575-.515,6.4,6.4,0,0,0,2.1-1.417,6.849,6.849,0,0,0,1.4-2.1,6.61,6.61,0,0,0,0-5.114,6.849,6.849,0,0,0-1.4-2.1,6.4,6.4,0,0,0-2.1-1.417,6.521,6.521,0,0,0-2.575-.516,5.916,5.916,0,0,0-2.465.516,6.19,6.19,0,0,0-1.986,1.417,6.619,6.619,0,0,0-1.325,2.1,7.077,7.077,0,0,0,0,5.114,6.619,6.619,0,0,0,1.325,2.1,6.188,6.188,0,0,0,1.986,1.417A5.922,5.922,0,0,0,1334.547,625.478Z" transform="translate(-1035.664 -458.457)" fill="#273b60"/>
      <path id="Path_11520" data-name="Path 11520" d="M1375.281,609.008h1.582l3.458-6.512a2.09,2.09,0,0,1,.846-.9,2.231,2.231,0,0,1,1.067-.275,2.271,2.271,0,0,1,1.49.569,1.814,1.814,0,0,1,.68,1.453,2.379,2.379,0,0,1-.331,1.178l-3.789,6.548,3.937,7.726a2.683,2.683,0,0,1,.258,1.141,1.912,1.912,0,0,1-.663,1.527,2.2,2.2,0,0,1-1.471.57,2.081,2.081,0,0,1-1.085-.294,2.016,2.016,0,0,1-.792-.957l-3.752-7.909h-1.435V619.9a2.161,2.161,0,0,1-3.624,1.564,2.041,2.041,0,0,1-.607-1.564V595.287a1.992,1.992,0,0,1,.607-1.527,2.326,2.326,0,0,1,3.054,0,2.062,2.062,0,0,1,.57,1.527Z" transform="translate(-1058.518 -451.221)" fill="#273b60"/>
      <circle id="Ellipse_117" data-name="Ellipse 117" cx="2.134" cy="2.134" r="2.134" transform="translate(153.573 144.895)" fill="#273b60"/>
      <circle id="Ellipse_118" data-name="Ellipse 118" cx="2.134" cy="2.134" r="2.134" transform="translate(280.508 166.495)" fill="#273b60"/>
    </g>
  </g>
</svg>
