<svg xmlns="http://www.w3.org/2000/svg" xmlns:xlink="http://www.w3.org/1999/xlink" width="176" height="176.513" viewBox="0 0 176 176.513">
  <defs>
    <linearGradient id="linear-gradient" x1="0.433" y1="1" x2="1" y2="-0.359" gradientUnits="objectBoundingBox">
      <stop offset="0" stop-color="#fff"/>
      <stop offset="1" stop-color="gray"/>
    </linearGradient>
  </defs>
  <g id="Group_16611" data-name="Group 16611" transform="translate(-93.001 -240.999)">
    <path id="Subtraction_113" data-name="Subtraction 113" d="M3244-9376.093V-9411a5.005,5.005,0,0,0-5-5h-78a5.005,5.005,0,0,0-5,5v29.105a88.571,88.571,0,0,1-16.016-13.8,88.333,88.333,0,0,1-12.3-17.251,87.54,87.54,0,0,1-7.894-20A88.306,88.306,0,0,1,3117-9455a87.451,87.451,0,0,1,6.915-34.253,88.027,88.027,0,0,1,8.114-14.949,88.575,88.575,0,0,1,10.745-13.023,88.659,88.659,0,0,1,13.024-10.746,87.951,87.951,0,0,1,14.948-8.113A87.452,87.452,0,0,1,3205-9543a87.454,87.454,0,0,1,34.254,6.916,88.005,88.005,0,0,1,14.948,8.113,88.686,88.686,0,0,1,13.024,10.746,88.641,88.641,0,0,1,10.746,13.023,87.959,87.959,0,0,1,8.114,14.949A87.443,87.443,0,0,1,3293-9455a88.108,88.108,0,0,1-3.573,24.9,87.546,87.546,0,0,1-10.039,22.133,88.266,88.266,0,0,1-35.388,31.87Z" transform="translate(-3024 9784)" fill="#fff"/>
    <rect id="Rectangle_18579" data-name="Rectangle 18579" width="26" height="4" transform="translate(165 356)" fill="#f1f1f1"/>
    <circle id="Ellipse_821" data-name="Ellipse 821" cx="3" cy="3" r="3" transform="translate(163 388)" fill="#979797"/>
    <circle id="Ellipse_822" data-name="Ellipse 822" cx="3" cy="3" r="3" transform="translate(188 388)" fill="#979797"/>
    <ellipse id="Ellipse_823" data-name="Ellipse 823" cx="6" cy="2" rx="6" ry="2" transform="translate(188 400)" fill="#eee"/>
    <ellipse id="Ellipse_831" data-name="Ellipse 831" cx="6" cy="2" rx="6" ry="2" transform="translate(157 400)" fill="#eee"/>
    <path id="Subtraction_111" data-name="Subtraction 111" d="M.15,9h0A7.705,7.705,0,0,1,0,7.5,7.5,7.5,0,1,1,14.851,9,7.5,7.5,0,0,0,.15,9Z" transform="translate(171 397)" fill="#979797"/>
    <path id="Subtraction_114" data-name="Subtraction 114" d="M3251.658-9381v-51.263a8.008,8.008,0,0,0-8-8h-87.738a8.008,8.008,0,0,0-8,8v43.918a88.465,88.465,0,0,1-12.813-13.475,87.953,87.953,0,0,1-9.742-15.957,87.311,87.311,0,0,1-6.2-17.96,88.285,88.285,0,0,1-2.171-19.487,87.223,87.223,0,0,1,6.9-34.166,87.8,87.8,0,0,1,8.093-14.911,88.427,88.427,0,0,1,10.718-12.991,88.485,88.485,0,0,1,12.99-10.719,87.8,87.8,0,0,1,14.91-8.093,87.231,87.231,0,0,1,34.166-6.9,87.236,87.236,0,0,1,34.167,6.9,87.843,87.843,0,0,1,14.91,8.093,88.54,88.54,0,0,1,12.991,10.719,88.427,88.427,0,0,1,10.718,12.991,87.775,87.775,0,0,1,8.093,14.911,87.223,87.223,0,0,1,6.9,34.166,88.06,88.06,0,0,1-2.934,22.589,87.337,87.337,0,0,1-8.3,20.405,88.149,88.149,0,0,1-12.906,17.463A88.238,88.238,0,0,1,3251.66-9381Z" transform="translate(-3024 9784)" fill="#273b60"/>
    <path id="Subtraction_117" data-name="Subtraction 117" d="M3204.555-9356.887a86.823,86.823,0,0,1-34.08-6.9,87.5,87.5,0,0,1-14.872-8.093,88.189,88.189,0,0,1-12.958-10.719,88.351,88.351,0,0,1-10.691-12.991,87.81,87.81,0,0,1-8.073-14.911,87.422,87.422,0,0,1-6.881-34.168c0-.913.015-1.848.043-2.777a87.239,87.239,0,0,0,87.512,85,87.239,87.239,0,0,0,87.512-85c.029.943.043,1.878.043,2.777a87.426,87.426,0,0,1-6.88,34.168,87.845,87.845,0,0,1-8.073,14.911,88.368,88.368,0,0,1-10.691,12.991,88.228,88.228,0,0,1-12.958,10.719,87.536,87.536,0,0,1-14.872,8.093A86.823,86.823,0,0,1,3204.555-9356.887Z" transform="translate(-3023.555 9774.398)" fill="#e1e1e1"/>
    <g id="Group_16610" data-name="Group 16610" transform="translate(2911.734 -10690.922)">
      <path id="Path_31725" data-name="Path 31725" d="M346.517,211.95a3.339,3.339,0,0,0,2.968,3.636,24.679,24.679,0,0,1,14.736,6.681,3.724,3.724,0,0,0,2.3.878,2.739,2.739,0,0,0,2.309-1.1,3.141,3.141,0,0,0,.955-2.329,3.217,3.217,0,0,0-1.041-2.291,31.927,31.927,0,0,0-18.582-8.466,3.331,3.331,0,0,0-3.646,2.987Z" transform="translate(-3077.799 10769.256)" fill="url(#linear-gradient)"/>
      <path id="Path_31726" data-name="Path 31726" d="M274.8,131.963a38.4,38.4,0,0,1,9.487-1.107,39.132,39.132,0,0,1,27.344,10.995,3.809,3.809,0,0,0,2.309.878,3.369,3.369,0,0,0,2.415-.954,3.284,3.284,0,0,0-.105-4.62A46.307,46.307,0,0,0,273.3,125.616,3.284,3.284,0,0,0,274.839,132Z" transform="translate(-3014.988 10839.471)" fill="url(#linear-gradient)"/>
      <path id="Path_31727" data-name="Path 31727" d="M329.347,365.947a4.38,4.38,0,1,0,2.256.535,4.388,4.388,0,0,0-2.256-.535Z" transform="translate(-3060.048 10639.014)" fill="url(#linear-gradient)"/>
      <path id="Path_31728" data-name="Path 31728" d="M161.8,88.374a3.264,3.264,0,0,0-4.61,4.61l7.635,7.635a42.905,42.905,0,0,0-7.635,5.965,3.273,3.273,0,0,0-.115,4.619,3.384,3.384,0,0,0,2.424.955,2.8,2.8,0,0,0,2.195-.878,43.667,43.667,0,0,1,7.979-5.87l5.727,5.727a31.022,31.022,0,0,0-8.017,5.516,3.293,3.293,0,0,0,2.309,5.727,2.472,2.472,0,0,0,2.09-.878,25.449,25.449,0,0,1,8.59-5.355l5.335,5.335a18.443,18.443,0,0,0-8.9,4.486,3.293,3.293,0,0,0-.22,4.619,3.143,3.143,0,0,0,2.425,1.1,3.918,3.918,0,0,0,2.3-.764,12.309,12.309,0,0,1,9.191-2.949,3.565,3.565,0,0,0,1.422-.239l24.518,24.528h0a3.267,3.267,0,1,0,4.619-4.62Z" transform="translate(-2919.916 10869.975)" fill="url(#linear-gradient)"/>
    </g>
  </g>
</svg>
