<svg xmlns="http://www.w3.org/2000/svg" width="68.968" height="74.904" viewBox="0 0 68.968 74.904">
  <g id="Group_18340" data-name="Group 18340" transform="translate(-45.512 -81.548)">
    <g id="Group_18339" data-name="Group 18339">
      <ellipse id="Ellipse_116" data-name="Ellipse 116" cx="34.484" cy="2.336" rx="34.484" ry="2.336" transform="translate(45.512 151.781)" opacity="0.15"/>
      <path id="Path_11492" data-name="Path 11492" d="M920.331,629.835c0,.174-.005.347-.021.516v.006a6.388,6.388,0,0,1-.179,1.058,5.848,5.848,0,0,1-.59,1.454v.005a6.017,6.017,0,0,1-1.011,1.338c-.037.036-.074.073-.116.11l-.163.153a5.741,5.741,0,0,1-3.813,1.448H867.2a6,6,0,0,1-5.894-6.089l2.9-48.8a6,6,0,0,1,5.894-6.089h41.435a6,6,0,0,1,5.894,6.089l1.459,24.57.105,1.712.358,6.042.574,9.655.105,1.738.1,1.717Z" transform="translate(-810.773 -481.807)" fill="#f16427"/>
      <path id="Path_11493" data-name="Path 11493" d="M869.836,635.922H867.2a5.993,5.993,0,0,1-5.893-6.089l2.9-48.8a5.993,5.993,0,0,1,5.893-6.089h2.636a5.993,5.993,0,0,0-5.893,6.089l-2.9,48.8A5.993,5.993,0,0,0,869.836,635.922Z" transform="translate(-810.775 -481.806)" fill="#d65227"/>
      <g id="Group_3332" data-name="Group 3332" transform="translate(76.038 135.654)">
        <path id="Path_11494" data-name="Path 11494" d="M912.911,657.66a1.979,1.979,0,1,0,1.979,1.979A1.979,1.979,0,0,0,912.911,657.66Z" transform="translate(-910.932 -657.66)" fill="#fff"/>
        <path id="Path_11495" data-name="Path 11495" d="M924.606,657.66a1.979,1.979,0,1,0,1.979,1.979A1.979,1.979,0,0,0,924.606,657.66Z" transform="translate(-916.616 -657.66)" fill="#fff"/>
      </g>
      <g id="Group_3333" data-name="Group 3333" transform="translate(65.406 116.056)">
        <path id="Path_11496" data-name="Path 11496" d="M919.811,630.877a1.477,1.477,0,0,0-1.419,1.1,9.6,9.6,0,0,1-18.5,0,1.477,1.477,0,0,0-1.419-1.1h0a1.481,1.481,0,0,0-1.426,1.872,12.553,12.553,0,0,0,24.194,0A1.481,1.481,0,0,0,919.811,630.877Z" transform="translate(-893.523 -625.045)" fill="#fff"/>
        <path id="Path_11497" data-name="Path 11497" d="M940.8,619.531a2.215,2.215,0,1,0,2.215,2.215A2.215,2.215,0,0,0,940.8,619.531Z" transform="translate(-913.74 -619.531)" fill="#fff"/>
        <path id="Path_11498" data-name="Path 11498" d="M894.967,622.432a2.21,2.21,0,0,1,1.456.765.985.985,0,0,0,.9.366,1.161,1.161,0,0,0,.981-1.033,1.125,1.125,0,0,0-.293-.886,4.521,4.521,0,0,0-7.76,2.9,1.126,1.126,0,0,0,.338.868,1.151,1.151,0,0,0,1.411.174.985.985,0,0,0,.462-.849,2.257,2.257,0,0,1,.2-.9v0c.013-.028.027-.057.041-.085l.006-.011a2.208,2.208,0,0,1,2.258-1.312Z" transform="translate(-890.246 -619.859)" fill="#fff"/>
      </g>
      <path id="Path_11499" data-name="Path 11499" d="M890.144,564.983c1.023-3.727,4.5-12.59,14.484-12.59,9.962,0,12.824,8.784,13.594,12.577a2,2,0,1,1-1.975.391c-.628-3.3-3.012-10.933-11.619-10.933-8.484,0-11.543,7.571-12.481,10.921a1.991,1.991,0,1,1-2-.366Z" transform="translate(-824.16 -470.845)" fill="#fdce0c"/>
    </g>
  </g>
</svg>
