<svg xmlns="http://www.w3.org/2000/svg" xmlns:xlink="http://www.w3.org/1999/xlink" width="91.231" height="91.231" viewBox="0 0 91.231 91.231">
  <defs>
    <clipPath id="clip-path">
      <rect width="91.231" height="91.231" fill="none"/>
    </clipPath>
  </defs>
  <g id="Repeat_Grid_1" data-name="Repeat Grid 1" clip-path="url(#clip-path)">
    <g id="Group_16567" data-name="Group 16567" transform="translate(-1381.384 1172.5)">
      <circle id="Ellipse_635" data-name="Ellipse 635" cx="45.616" cy="45.616" r="45.616" transform="translate(1381.384 -1172.5)" fill="#273b60"/>
      <g id="Group_16568" data-name="Group 16568">
        <path id="Path_29933" data-name="Path 29933" d="M598.065,283.006a45.623,45.623,0,0,1-62.3,63.45,45.619,45.619,0,1,0,62.3-63.45Z" transform="translate(852.8 -1448.823)" fill="#1c2e51"/>
        <path id="Path_29934" data-name="Path 29934" d="M515.9,311.593a42.351,42.351,0,0,1,75.923-25.817,42.354,42.354,0,1,0-70.3,46.925A42.158,42.158,0,0,1,515.9,311.593Z" transform="translate(871.686 -1433.665)" fill="#38568e"/>
        <path id="ic_check_24px" d="M18.052,33.3,7.129,22.38,3.41,26.073,18.052,40.715,49.484,9.283,45.791,5.59Z" transform="translate(1401.758 -1147.842)" fill="#fff"/>
      </g>
    </g>
  </g>
</svg>
