<svg xmlns="http://www.w3.org/2000/svg" width="267.721" height="72.365" viewBox="0 0 267.721 72.365">
  <g id="Group_18339" data-name="Group 18339" transform="translate(-51.956 -311.76)">
    <text id="Shopping_Made_Easy" data-name="Shopping Made Easy" transform="translate(211.677 380.125)" fill="#f16427" font-size="11" font-family="Poppins-Medium, Poppins" font-weight="500" letter-spacing="-0.044em"><tspan x="0" y="0">Shopping Made Easy</tspan></text>
    <ellipse id="Ellipse_116" data-name="Ellipse 116" cx="32.919" cy="2.23" rx="32.919" ry="2.23" transform="translate(51.956 378.806)" opacity="0.15"/>
    <path id="Path_11492" data-name="Path 11492" d="M917.652,627.344c0,.166,0,.332-.02.493v.005a6.111,6.111,0,0,1-.171,1.01,5.583,5.583,0,0,1-.563,1.388v0a5.744,5.744,0,0,1-.965,1.277c-.035.035-.071.07-.111.105l-.156.146a5.481,5.481,0,0,1-3.64,1.383h-45.1a5.723,5.723,0,0,1-5.626-5.812l2.77-46.584a5.723,5.723,0,0,1,5.626-5.812h39.555a5.723,5.723,0,0,1,5.626,5.812l1.393,23.455.1,1.634.341,5.767.548,9.216.1,1.659.1,1.639Z" transform="translate(-804.559 -252.12)" fill="#f16427"/>
    <path id="Path_11493" data-name="Path 11493" d="M869.449,633.155h-2.517a5.721,5.721,0,0,1-5.626-5.812l2.768-46.584a5.721,5.721,0,0,1,5.626-5.812h2.516a5.721,5.721,0,0,0-5.626,5.812l-2.768,46.584A5.721,5.721,0,0,0,869.449,633.155Z" transform="translate(-804.56 -252.12)" fill="#d65227"/>
    <g id="Group_3334" data-name="Group 3334" transform="translate(70.947 344.702)">
      <g id="Group_3332" data-name="Group 3332" transform="translate(10.15 18.708)">
        <path id="Path_11494" data-name="Path 11494" d="M912.821,657.66a1.889,1.889,0,1,0,1.889,1.889A1.889,1.889,0,0,0,912.821,657.66Z" transform="translate(-910.932 -657.66)" fill="#fff"/>
        <path id="Path_11495" data-name="Path 11495" d="M924.516,657.66a1.889,1.889,0,1,0,1.889,1.889A1.889,1.889,0,0,0,924.516,657.66Z" transform="translate(-916.889 -657.66)" fill="#fff"/>
      </g>
      <g id="Group_3333" data-name="Group 3333">
        <path id="Path_11496" data-name="Path 11496" d="M918.775,630.877a1.41,1.41,0,0,0-1.355,1.046,9.169,9.169,0,0,1-17.664,0,1.41,1.41,0,0,0-1.355-1.046h0a1.413,1.413,0,0,0-1.361,1.788,11.983,11.983,0,0,0,23.1,0A1.414,1.414,0,0,0,918.775,630.877Z" transform="translate(-893.681 -625.31)" fill="#fff"/>
        <path id="Path_11497" data-name="Path 11497" d="M940.7,619.531a2.114,2.114,0,1,0,2.114,2.115A2.115,2.115,0,0,0,940.7,619.531Z" transform="translate(-914.867 -619.531)" fill="#fff"/>
        <path id="Path_11498" data-name="Path 11498" d="M894.753,622.331a2.11,2.11,0,0,1,1.389.731.941.941,0,0,0,.856.349,1.108,1.108,0,0,0,.937-.986,1.074,1.074,0,0,0-.28-.845,4.316,4.316,0,0,0-7.408,2.768,1.075,1.075,0,0,0,.322.829,1.1,1.1,0,0,0,1.347.166.941.941,0,0,0,.441-.81,2.156,2.156,0,0,1,.194-.855h0c.013-.027.025-.054.039-.081l.005-.011a2.108,2.108,0,0,1,2.156-1.253Z" transform="translate(-890.246 -619.874)" fill="#fff"/>
      </g>
    </g>
    <path id="Path_11499" data-name="Path 11499" d="M890.085,564.411c.977-3.558,4.3-12.018,13.826-12.018,9.51,0,12.242,8.385,12.977,12.006a1.906,1.906,0,1,1-1.886.373c-.6-3.15-2.875-10.437-11.092-10.437-8.1,0-11.019,7.227-11.914,10.425a1.9,1.9,0,1,1-1.912-.349Z" transform="translate(-818.587 -240.633)" fill="#fdce0c"/>
    <path id="Path_11511" data-name="Path 11511" d="M999.8,601.126h1.265a1.968,1.968,0,0,1,1.457.545,2.223,2.223,0,0,1,0,2.914,1.908,1.908,0,0,1-1.457.579H999.8v9.341a2.733,2.733,0,0,0,.193,1.124,1.607,1.607,0,0,0,.545.667,2.319,2.319,0,0,0,.772.352,5.411,5.411,0,0,0,.914.14,1.712,1.712,0,0,1,1.246.615,2.255,2.255,0,0,1,.439,1.457,1.69,1.69,0,0,1-.6,1.352,2.645,2.645,0,0,1-1.755.509,7.175,7.175,0,0,1-2.283-.352,4.844,4.844,0,0,1-1.843-1.105,5.059,5.059,0,0,1-1.229-1.932,7.966,7.966,0,0,1-.439-2.792v-9.376a1.8,1.8,0,0,1-1.247-.668,2.1,2.1,0,0,1-.439-1.335,2.136,2.136,0,0,1,.439-1.387,1.713,1.713,0,0,1,1.247-.615v-5.936a1.945,1.945,0,0,1,.579-1.492,2.005,2.005,0,0,1,3.459,1.492Z" transform="translate(-872.183 -261.412)" fill="#fff"/>
    <path id="Path_11512" data-name="Path 11512" d="M1034.768,626.269a2.063,2.063,0,0,1-3.459,1.493,1.95,1.95,0,0,1-.58-1.493v-.1a9.762,9.762,0,0,1-1.141.965,7.821,7.821,0,0,1-1.44.825,9.652,9.652,0,0,1-1.668.563,7.518,7.518,0,0,1-1.756.21,10.471,10.471,0,0,1-4.144-.807,9.9,9.9,0,0,1-5.408-5.461,10.847,10.847,0,0,1,0-8.042,10.058,10.058,0,0,1,2.16-3.284,10.4,10.4,0,0,1,3.284-2.23,10.184,10.184,0,0,1,4.109-.825,8.526,8.526,0,0,1,3.477.667,7.387,7.387,0,0,1,2.528,1.791,1.907,1.907,0,0,1,.58-1.458,2.225,2.225,0,0,1,2.915,0,1.972,1.972,0,0,1,.544,1.458Zm-10.044-14.153a6.168,6.168,0,0,0-4.46,1.844,6.436,6.436,0,0,0-1.334,2.019,6.213,6.213,0,0,0-.492,2.458,6.093,6.093,0,0,0,.492,2.442,6.222,6.222,0,0,0,3.318,3.318,6.188,6.188,0,0,0,2.476.492,5.84,5.84,0,0,0,4.267-1.826,6.276,6.276,0,0,0,1.247-1.984,6.53,6.53,0,0,0,.456-2.442,6.66,6.66,0,0,0-.456-2.458,6.435,6.435,0,0,0-1.247-2.019,5.672,5.672,0,0,0-1.9-1.352A5.763,5.763,0,0,0,1024.724,612.116Z" transform="translate(-882.535 -268.995)" fill="#fff"/>
    <path id="Path_11513" data-name="Path 11513" d="M1057.588,612.477a2.063,2.063,0,0,1,3.459-1.493,1.951,1.951,0,0,1,.579,1.493v19.666a8,8,0,0,1-.439,2.792,5.079,5.079,0,0,1-1.229,1.932,4.876,4.876,0,0,1-1.844,1.107,7.177,7.177,0,0,1-2.282.351,2.648,2.648,0,0,1-1.756-.509,1.692,1.692,0,0,1-.6-1.352,2.255,2.255,0,0,1,.439-1.457,1.709,1.709,0,0,1,1.247-.615,5.786,5.786,0,0,0,.9-.14,2.3,2.3,0,0,0,.79-.352,1.616,1.616,0,0,0,.545-.667,2.745,2.745,0,0,0,.193-1.124Z" transform="translate(-902.44 -270.198)" fill="#fff"/>
    <path id="Path_11514" data-name="Path 11514" d="M1095.965,626.269a1.882,1.882,0,0,1-2.037,2.037,2,2,0,0,1-1.423-.544,1.95,1.95,0,0,1-.579-1.493v-.1a9.791,9.791,0,0,1-1.141.965,7.806,7.806,0,0,1-1.44.825,9.66,9.66,0,0,1-1.668.563,7.516,7.516,0,0,1-1.756.21,10.469,10.469,0,0,1-4.144-.807,9.9,9.9,0,0,1-5.408-5.461,10.845,10.845,0,0,1,0-8.042,10.047,10.047,0,0,1,2.159-3.284,10.393,10.393,0,0,1,3.284-2.23,10.185,10.185,0,0,1,4.109-.825,8.523,8.523,0,0,1,3.476.667,7.388,7.388,0,0,1,2.529,1.791,1.907,1.907,0,0,1,.579-1.458,2.226,2.226,0,0,1,2.916,0,1.974,1.974,0,0,1,.544,1.458Zm-10.044-14.153a6.168,6.168,0,0,0-4.461,1.844,6.443,6.443,0,0,0-1.334,2.019,6.218,6.218,0,0,0-.492,2.458,6.1,6.1,0,0,0,.492,2.442,6.222,6.222,0,0,0,3.318,3.318,6.189,6.189,0,0,0,2.476.492,5.84,5.84,0,0,0,4.267-1.826,6.277,6.277,0,0,0,1.247-1.984,6.528,6.528,0,0,0,.457-2.442,6.658,6.658,0,0,0-.457-2.458,6.436,6.436,0,0,0-1.247-2.019,5.675,5.675,0,0,0-1.9-1.352A5.762,5.762,0,0,0,1085.921,612.116Z" transform="translate(-913.705 -268.995)" fill="#fff"/>
    <path id="Path_11515" data-name="Path 11515" d="M1128.018,626.3a1.961,1.961,0,0,1-.544,1.475,2.28,2.28,0,0,1-2.916,0,1.894,1.894,0,0,1-.579-1.475V610.29a1.771,1.771,0,0,1,.456-1.283,1.625,1.625,0,0,1,1.229-.473,1.8,1.8,0,0,1,2,1.615,4.661,4.661,0,0,1,2.019-1.581,6.539,6.539,0,0,1,2.476-.491,8.778,8.778,0,0,1,1.72.175,8,8,0,0,1,1.669.527,6.115,6.115,0,0,1,1.475.931,5.293,5.293,0,0,1,1.141,1.351,5.827,5.827,0,0,1,2.7-2.282,8.7,8.7,0,0,1,3.371-.7,7.343,7.343,0,0,1,2.933.614,8.174,8.174,0,0,1,2.51,1.686,8.322,8.322,0,0,1,1.757,2.564,7.875,7.875,0,0,1,.667,3.248V626.3a1.958,1.958,0,0,1-.544,1.475,2.256,2.256,0,0,1-2.9,0,1.923,1.923,0,0,1-.562-1.475V616.19a4.064,4.064,0,0,0-.316-1.616,4.27,4.27,0,0,0-.86-1.3,4.033,4.033,0,0,0-1.247-.878,3.483,3.483,0,0,0-1.44-.316,3.81,3.81,0,0,0-1.51.316,4.627,4.627,0,0,0-2.3,2.177,3.566,3.566,0,0,0-.369,1.616V626.3a1.96,1.96,0,0,1-.544,1.475,2.06,2.06,0,0,1-1.493.526,1.977,1.977,0,0,1-1.4-.526,1.925,1.925,0,0,1-.562-1.475V616.19a3.883,3.883,0,0,0-.334-1.616,4.563,4.563,0,0,0-.878-1.3,4.045,4.045,0,0,0-1.247-.878,3.487,3.487,0,0,0-1.44-.316,3.857,3.857,0,0,0-1.493.316,4.279,4.279,0,0,0-1.334.878,4.781,4.781,0,0,0-.948,1.3,3.569,3.569,0,0,0-.369,1.616Z" transform="translate(-938.35 -268.995)" fill="#fff"/>
    <path id="Path_11516" data-name="Path 11516" d="M1192.361,626.3a1.96,1.96,0,0,1-.544,1.475,2.28,2.28,0,0,1-2.915,0,1.892,1.892,0,0,1-.579-1.475V610.29a1.771,1.771,0,0,1,.457-1.283,1.625,1.625,0,0,1,1.229-.473,1.8,1.8,0,0,1,2,1.615,4.662,4.662,0,0,1,2.019-1.581,6.543,6.543,0,0,1,2.476-.491,8.778,8.778,0,0,1,1.721.175,8.007,8.007,0,0,1,1.668.527,6.1,6.1,0,0,1,1.475.931,5.291,5.291,0,0,1,1.141,1.351,5.827,5.827,0,0,1,2.7-2.282,8.7,8.7,0,0,1,3.371-.7,7.342,7.342,0,0,1,2.933.614,8.168,8.168,0,0,1,2.511,1.686,8.316,8.316,0,0,1,1.757,2.564,7.881,7.881,0,0,1,.666,3.248V626.3a1.96,1.96,0,0,1-.544,1.475,2.257,2.257,0,0,1-2.9,0,1.926,1.926,0,0,1-.561-1.475V616.19a4.064,4.064,0,0,0-.317-1.616,4.273,4.273,0,0,0-.86-1.3,4.041,4.041,0,0,0-1.247-.878,3.485,3.485,0,0,0-1.44-.316,3.806,3.806,0,0,0-1.51.316,4.629,4.629,0,0,0-2.3,2.177,3.572,3.572,0,0,0-.369,1.616V626.3a1.961,1.961,0,0,1-.544,1.475,2.061,2.061,0,0,1-1.493.526,1.977,1.977,0,0,1-1.4-.526,1.924,1.924,0,0,1-.562-1.475V616.19a3.874,3.874,0,0,0-.334-1.616,4.543,4.543,0,0,0-.878-1.3,4.036,4.036,0,0,0-1.247-.878,3.484,3.484,0,0,0-1.44-.316,3.855,3.855,0,0,0-1.493.316,4.271,4.271,0,0,0-1.334.878,4.767,4.767,0,0,0-.948,1.3,3.56,3.56,0,0,0-.369,1.616Z" transform="translate(-971.122 -268.995)" fill="#fff"/>
    <path id="Path_11517" data-name="Path 11517" d="M1267.593,628.78a1.889,1.889,0,0,1-2.037-1.756,4.931,4.931,0,0,1-1.9,1.615,6.3,6.3,0,0,1-2.845.6,8.741,8.741,0,0,1-3.406-.633,7.349,7.349,0,0,1-2.564-1.756,7.656,7.656,0,0,1-1.616-2.7,10.325,10.325,0,0,1-.561-3.477V611.01a1.958,1.958,0,0,1,.544-1.475,2.258,2.258,0,0,1,2.9,0,1.927,1.927,0,0,1,.562,1.475v9.657a4.818,4.818,0,0,0,1.106,3.319,4.115,4.115,0,0,0,3.248,1.246,3.982,3.982,0,0,0,3.2-1.228,4.96,4.96,0,0,0,1.054-3.337V611.01a1.956,1.956,0,0,1,.544-1.475,2.281,2.281,0,0,1,2.915,0,1.894,1.894,0,0,1,.579,1.475v16.014a1.666,1.666,0,0,1-.509,1.282A1.719,1.719,0,0,1,1267.593,628.78Z" transform="translate(-1003.896 -269.469)" fill="#fff"/>
    <path id="Path_11518" data-name="Path 11518" d="M1297.575,618.686a1.882,1.882,0,0,1-2.037,2.037,2,2,0,0,1-1.422-.544,1.948,1.948,0,0,1-.58-1.493V595.191a1.9,1.9,0,0,1,.58-1.457,2.22,2.22,0,0,1,2.915,0,1.968,1.968,0,0,1,.544,1.457Z" transform="translate(-1024.711 -261.412)" fill="#fff"/>
    <path id="Path_11519" data-name="Path 11519" d="M1328.1,635.119a1.97,1.97,0,0,1-.545,1.457,2.019,2.019,0,0,1-1.493.544,2.048,2.048,0,0,1-1.457-.544,1.906,1.906,0,0,1-.58-1.457V610.29a1.665,1.665,0,0,1,.509-1.283,1.715,1.715,0,0,1,1.212-.473,1.8,1.8,0,0,1,1.527.579,4.4,4.4,0,0,1,.685,1.7,6.831,6.831,0,0,1,1.124-1.019,9.523,9.523,0,0,1,1.457-.878,8.777,8.777,0,0,1,1.686-.615,7.44,7.44,0,0,1,1.843-.228,9.738,9.738,0,0,1,3.881.807,10.813,10.813,0,0,1,5.619,5.5,9.822,9.822,0,0,1,0,8.042,10.814,10.814,0,0,1-5.619,5.5,9.738,9.738,0,0,1-3.881.807,8.427,8.427,0,0,1-3.512-.684,6.857,6.857,0,0,1-2.458-1.809Zm5.97-10.431a6.232,6.232,0,0,0,2.459-.492,6.107,6.107,0,0,0,2-1.352,6.537,6.537,0,0,0,1.335-2,6.311,6.311,0,0,0,0-4.882,6.538,6.538,0,0,0-1.335-2,6.109,6.109,0,0,0-2-1.352,6.226,6.226,0,0,0-2.459-.492,5.648,5.648,0,0,0-2.353.492,5.909,5.909,0,0,0-1.9,1.352,6.318,6.318,0,0,0-1.264,2,6.755,6.755,0,0,0,0,4.882,6.318,6.318,0,0,0,1.264,2,5.907,5.907,0,0,0,1.9,1.352A5.654,5.654,0,0,0,1334.07,624.689Z" transform="translate(-1040.241 -268.995)" fill="#fff"/>
    <path id="Path_11520" data-name="Path 11520" d="M1375.089,608.291h1.51l3.3-6.216a2,2,0,0,1,.808-.86,2.13,2.13,0,0,1,1.019-.263,2.168,2.168,0,0,1,1.422.544,1.732,1.732,0,0,1,.649,1.387,2.271,2.271,0,0,1-.316,1.125l-3.617,6.251,3.758,7.375a2.56,2.56,0,0,1,.246,1.089,1.825,1.825,0,0,1-.633,1.457,2.1,2.1,0,0,1-1.4.544,1.987,1.987,0,0,1-1.035-.281,1.924,1.924,0,0,1-.756-.913l-3.582-7.55h-1.37v6.707a2.063,2.063,0,0,1-3.459,1.493,1.948,1.948,0,0,1-.579-1.493V595.191a1.9,1.9,0,0,1,.579-1.457,2.22,2.22,0,0,1,2.915,0,1.969,1.969,0,0,1,.544,1.457Z" transform="translate(-1064.192 -261.412)" fill="#fff"/>
    <circle id="Ellipse_117" data-name="Ellipse 117" cx="2.037" cy="2.037" r="2.037" transform="translate(155.112 334.572)" fill="#fff"/>
    <circle id="Ellipse_118" data-name="Ellipse 118" cx="2.037" cy="2.037" r="2.037" transform="translate(276.288 355.191)" fill="#fff"/>
  </g>
</svg>
