<svg xmlns="http://www.w3.org/2000/svg" width="30.69" height="30.396" viewBox="0 0 30.69 30.396">
  <g id="Group_13875" data-name="Group 13875" transform="translate(-34 -196.336)">
    <path id="Path_29819" data-name="Path 29819" d="M168.53,89.611h-1.286V84.056a.11.11,0,0,0-.109-.109h-3.3l2.649-7.03a.11.11,0,0,0-.064-.141l-15.128-5.7a.111.111,0,0,0-.141.064l-.553,1.468-3-.889a.108.108,0,0,0-.089.012.11.11,0,0,0-.05.074l-.315,1.807-3.48-.33a.1.1,0,0,0-.084.028.108.108,0,0,0-.036.081V75.2l-2.907.345a.109.109,0,0,0-.1.118l.741,8.287h-2.217a.11.11,0,0,0-.109.109v16.3a.11.11,0,0,0,.109.109h28.075a.11.11,0,0,0,.109-.109V94.8h1.286a.11.11,0,0,0,.109-.109V89.72a.11.11,0,0,0-.109-.109Zm-2.29-12.669-1.317,3.493-1.619-4.6Zm-3.2-1.207,1.767,5.018-1.2,3.194h-3.4a4.866,4.866,0,1,0-9.553,0h-4.089l3.323-8.818,4.639-2.6Zm-7.548,7.434.5.188a1.3,1.3,0,0,1,.685.59H155.2Zm-.128-.282-.5-.188a1.3,1.3,0,0,1-.69-.583.9.9,0,0,1,.5-1.324,1.3,1.3,0,0,1,.9.018l.5.188Zm.7.265-.5-.188.712-1.89,1.351.509a.109.109,0,1,0,.077-.2l-1.351-.509.317-.841a.11.11,0,0,0-.064-.141.111.111,0,0,0-.141.064l-.317.841-.5-.188a1.52,1.52,0,0,0-1.055-.018,1.115,1.115,0,0,0-.616,1.635,1.523,1.523,0,0,0,.805.683l.5.188-.322.856h-4.09a4.646,4.646,0,1,1,9.106,0h-3.061a1.513,1.513,0,0,0-.852-.8Zm-4.748-11.833,2.936,1.106L150,74.811Zm-3.669.644,2.872.85-4.2,11.134h-.762Zm-3.89,1.548,3.343.317L145.34,83.946h-1.582Zm-2.995,2.236,2.776-.33v8.53H141.5Zm26.262,24.5H139.169V84.166h4.475l0,0,0,0h13.192l.005,0,.01,0h10.164v5.445H157.49a.11.11,0,0,0-.109.109v4.968a.11.11,0,0,0,.109.109h9.535Zm1.4-5.664H157.6v-4.75h10.822Z" transform="translate(-104.45 125.77)" fill="#f16427" stroke="#f16427" stroke-width="1"/>
    <path id="Path_29820" data-name="Path 29820" d="M427.985,363.954a.11.11,0,0,0,.109-.109V362.82a.109.109,0,1,0-.219,0v1.025A.11.11,0,0,0,427.985,363.954Z" transform="translate(-372.375 -145.359)" fill="#f16427" stroke="#f16427" stroke-width="1"/>
  </g>
</svg>
