<svg xmlns="http://www.w3.org/2000/svg" width="52.393" height="36.585" viewBox="0 0 52.393 36.585">
  <g id="Group_16546" data-name="Group 16546" transform="translate(-314.534 -222.799)">
    <g id="Group_16540" data-name="Group 16540" transform="translate(314.534 222.799)">
      <g id="Group_16538" data-name="Group 16538" transform="translate(0 6.369)">
        <path id="Path_31624" data-name="Path 31624" d="M293.919,329.71a1.47,1.47,0,0,0-1.47-1.47H286.57a1.47,1.47,0,0,0,0,2.94h5.879A1.47,1.47,0,0,0,293.919,329.71Z" transform="translate(-285.1 -316.481)" fill="#f16427"/>
        <path id="Path_31628" data-name="Path 31628" d="M1.47,0h1.6a1.47,1.47,0,0,1,1.47,1.47h0a1.47,1.47,0,0,1-1.47,1.47H1.47A1.47,1.47,0,0,1,0,1.47H0A1.47,1.47,0,0,1,1.47,0Z" transform="translate(6.681 0)" fill="#f16427"/>
        <path id="Path_31625" data-name="Path 31625" d="M337.09,362.284a3.62,3.62,0,1,0,3.62,3.62A3.62,3.62,0,0,0,337.09,362.284Zm0,4.734A1.114,1.114,0,1,1,338.2,365.9,1.114,1.114,0,0,1,337.09,367.018Z" transform="translate(-317.533 -339.308)" fill="#273b60"/>
        <path id="Path_31626" data-name="Path 31626" d="M381.888,362.284a3.62,3.62,0,1,0,3.62,3.62A3.62,3.62,0,0,0,381.888,362.284Zm0,4.734A1.114,1.114,0,1,1,383,365.9,1.114,1.114,0,0,1,381.888,367.018Z" transform="translate(-347.57 -339.308)" fill="#273b60"/>
        <path id="Path_31627" data-name="Path 31627" d="M337.258,315.608l-4.37-20.745a2.851,2.851,0,0,0-2.463-2.246H308.709a1.467,1.467,0,0,0,.212,2.92h1.927a1.469,1.469,0,0,1,0,2.938h-7.272a1.471,1.471,0,0,0,0,2.941h7.216a1.469,1.469,0,1,1,0,2.938h-4.01a1.471,1.471,0,0,0,0,2.941h1.092a1.469,1.469,0,0,1-.022,2.938h-6.681a1.471,1.471,0,0,0,0,2.941h6.957a1.469,1.469,0,1,1,0,2.938h-5.3a1.47,1.47,0,0,0,0,2.941h6.89a4.734,4.734,0,0,1,9.463,0h5.3a4.734,4.734,0,0,1,9.463,0h.521A2.857,2.857,0,0,0,337.258,315.608Zm-21.706-5.8a1.476,1.476,0,0,1-1.042.429H312.4a1.469,1.469,0,1,1,0-2.938h2.114a1.471,1.471,0,0,1,1.042,2.509Z" transform="translate(-294.891 -292.596)" fill="#f16427"/>
      </g>
      <g id="Group_3334" data-name="Group 3334" transform="translate(20.272 13.883)">
        <g id="Group_3332" data-name="Group 3332" transform="translate(4.501 8.297)">
          <path id="Path_11494" data-name="Path 11494" d="M911.77,657.66a.838.838,0,1,0,.838.838A.838.838,0,0,0,911.77,657.66Z" transform="translate(-910.932 -657.66)" fill="#fff"/>
          <path id="Path_11495" data-name="Path 11495" d="M923.465,657.66a.838.838,0,1,0,.838.838A.838.838,0,0,0,923.465,657.66Z" transform="translate(-920.082 -657.66)" fill="#fff"/>
        </g>
        <g id="Group_3333" data-name="Group 3333">
          <path id="Path_11496" data-name="Path 11496" d="M906.651,630.877a.626.626,0,0,0-.6.464,4.066,4.066,0,0,1-7.834,0,.626.626,0,0,0-.6-.464h0a.627.627,0,0,0-.6.793,5.314,5.314,0,0,0,10.243,0A.627.627,0,0,0,906.651,630.877Z" transform="translate(-895.522 -628.408)" fill="#fff"/>
          <path id="Path_11497" data-name="Path 11497" d="M939.523,619.531a.938.938,0,1,0,.938.938A.938.938,0,0,0,939.523,619.531Z" transform="translate(-928.066 -619.531)" fill="#fff"/>
          <path id="Path_11498" data-name="Path 11498" d="M892.245,621.148a.936.936,0,0,1,.616.324.417.417,0,0,0,.379.155.491.491,0,0,0,.415-.437.477.477,0,0,0-.124-.375,1.914,1.914,0,0,0-3.285,1.228.477.477,0,0,0,.143.368.487.487,0,0,0,.6.074.417.417,0,0,0,.2-.359.957.957,0,0,1,.086-.379h0l.017-.036,0,0a.935.935,0,0,1,.956-.555Z" transform="translate(-890.246 -620.058)" fill="#fff"/>
        </g>
      </g>
      <path id="Path_31623" data-name="Path 31623" d="M889.45,558.157c.476-1.706,2.093-5.764,6.734-5.764s5.962,4.021,6.32,5.758a.926.926,0,1,1-.918.179c-.292-1.511-1.4-5.006-5.4-5.006-3.945,0-5.366,3.466-5.8,5a.9.9,0,0,1,.32.685.927.927,0,1,1-1.251-.853Z" transform="translate(-869.517 -552.393)" fill="#fdce0c"/>
    </g>
    <path id="ic_add_circle_24px" d="M9.224,2a7.224,7.224,0,1,0,7.224,7.224A7.226,7.226,0,0,0,9.224,2Zm3.612,7.946H9.946v2.889H8.5V9.946H5.612V8.5H8.5V5.612H9.946V8.5h2.889Z" transform="translate(350.48 233.033)" fill="#273b60"/>
  </g>
</svg>
