<svg xmlns="http://www.w3.org/2000/svg" width="33.719" height="33.719" viewBox="0 0 33.719 33.719">
  <g id="noun_avatar_602617" transform="translate(-413 28)">
    <g id="Group_3131" data-name="Group 3131" transform="translate(413 -28)">
      <ellipse id="Ellipse_394" data-name="Ellipse 394" cx="6" cy="5.5" rx="6" ry="5.5" transform="translate(10.859 8.859)"/>
      <path id="Path_2458" data-name="Path 2458" d="M20.641,15H9.4a5.6,5.6,0,0,0-4.863,2.851,12.637,12.637,0,0,0,20.965,0A5.6,5.6,0,0,0,20.641,15Z" transform="translate(1.838 6.074)"/>
      <path id="Path_2459" data-name="Path 2459" d="M16.859,0A16.859,16.859,0,1,0,33.719,16.859,16.86,16.86,0,0,0,16.859,0Zm0,30.909A14.049,14.049,0,1,1,30.909,16.859,14.065,14.065,0,0,1,16.859,30.909Z"/>
    </g>
  </g>
</svg>
