<svg xmlns="http://www.w3.org/2000/svg" width="33.779" height="26.862" viewBox="0 0 33.779 26.862">
  <g id="Group_15330" data-name="Group 15330" transform="translate(-5443.249 1846)" opacity="0.39">
    <path id="Path_29828" data-name="Path 29828" d="M190.96,204.862a6.622,6.622,0,1,0,6.622-6.622A6.612,6.612,0,0,0,190.96,204.862Zm5.451-2.372a1.643,1.643,0,0,0-1.632,1.632.8.8,0,0,1-1.6,0,3.2,3.2,0,0,1,3.2-3.2.8.8,0,0,1,.8.8.782.782,0,0,1-.77.77Z" transform="translate(5260.432 -2035.098)" fill="#273b60"/>
    <path id="Path_29829" data-name="Path 29829" d="M103.694,81.742a1.365,1.365,0,0,0-1.436,1.263V93.384a.156.156,0,0,1-.175.154H78.614a.156.156,0,0,1-.175-.154V76.075a.156.156,0,0,1,.175-.154H94.341a1.273,1.273,0,1,0,0-2.526H86.11v-.924a1.448,1.448,0,0,0-1.541-1.355H81.521a1.47,1.47,0,0,0-1.541,1.355V73.4H78.613a2.894,2.894,0,0,0-3.012,2.68V93.384a2.87,2.87,0,0,0,3.012,2.649h23.5a2.87,2.87,0,0,0,3.012-2.649V83.005a1.343,1.343,0,0,0-1.436-1.263Z" transform="translate(5367.648 -1915.171)" fill="#273b60"/>
    <path id="Path_29830" data-name="Path 29830" d="M435.664,40.38a1.265,1.265,0,0,0-.893-.4h-2.988V37.054a1.281,1.281,0,0,0-1.17-1.294,1.16,1.16,0,0,0-.924.339,1.265,1.265,0,0,0-.4.893V39.98H426.3a1.263,1.263,0,0,0,0,2.526h2.988v2.988a1.263,1.263,0,1,0,2.526,0V42.505h2.926a1.281,1.281,0,0,0,1.294-1.17,1.325,1.325,0,0,0-.37-.955Z" transform="translate(5040.995 -1881.756)" fill="#273b60"/>
  </g>
</svg>
