<svg xmlns="http://www.w3.org/2000/svg" width="12.507" height="12.877" viewBox="0 0 12.507 12.877">
  <g id="Group_18287" data-name="Group 18287" transform="translate(11826.402 2430.903)">
    <path id="Path_31699" data-name="Path 31699" d="M204.31,258.1h7.445v.744H204.31Z" transform="translate(-12028.181 -2683.125)" fill="#f16427"/>
    <path id="Path_31700" data-name="Path 31700" d="M204.31,333.86h7.445v.744H204.31Z" transform="translate(-12028.181 -2756.949)" fill="#f16427"/>
    <path id="Path_31701" data-name="Path 31701" d="M204.31,409.62h7.445v.744H204.31Z" transform="translate(-12028.181 -2830.773)" fill="#f16427"/>
    <path id="Path_31702" data-name="Path 31702" d="M107.17,94.744h8.636a1.938,1.938,0,0,0,1.936-1.936V85.214a1.938,1.938,0,0,0-1.4-1.859v.521a1.006,1.006,0,0,1-1.005,1.005h-.251a1.006,1.006,0,0,1-1.005-1.005v-.6H108.9v.6a1.006,1.006,0,0,1-1.005,1.005h-.251a1.006,1.006,0,0,1-1.005-1.005v-.521a1.938,1.938,0,0,0-1.4,1.859v7.594a1.938,1.938,0,0,0,1.936,1.936ZM117,86.629v6.179A1.193,1.193,0,0,1,115.805,94H107.17a1.193,1.193,0,0,1-1.191-1.191V86.629Z" transform="translate(-11931.636 -2512.77)" fill="#f16427"/>
    <path id="Path_31703" data-name="Path 31703" d="M175.432,30.64h.251a.629.629,0,0,0,.628-.628V28.63a.629.629,0,0,0-.628-.628h-.251a.629.629,0,0,0-.628.628v1.382A.629.629,0,0,0,175.432,30.64Z" transform="translate(-11999.428 -2458.905)" fill="#f16427"/>
    <path id="Path_31704" data-name="Path 31704" d="M466.812,30.64h.251a.629.629,0,0,0,.628-.628V28.63a.629.629,0,0,0-.628-.628h-.251a.629.629,0,0,0-.628.628v1.382A.629.629,0,0,0,466.812,30.64Z" transform="translate(-12283.362 -2458.905)" fill="#f16427"/>
  </g>
</svg>
