<svg id="noun_Delete_1560851" xmlns="http://www.w3.org/2000/svg" width="7.041" height="8.983" viewBox="0 0 7.041 8.983">
  <path id="Path_29975" data-name="Path 29975" d="M6,4.994a.7.7,0,0,0,.64.749V9.486a1.4,1.4,0,0,0,1.28,1.5h3.2a1.4,1.4,0,0,0,1.28-1.5V5.743a.7.7,0,0,0,.64-.749V4.246A.7.7,0,0,0,12.4,3.5H11.12V2.749A.7.7,0,0,0,10.48,2H8.56a.7.7,0,0,0-.64.749V3.5H6.64A.7.7,0,0,0,6,4.246Zm5.761,4.492a.7.7,0,0,1-.64.749H7.92a.7.7,0,0,1-.64-.749V5.743h4.48ZM8.56,2.749h1.92V3.5H8.56Zm-1.92,1.5H12.4v.749H6.64Z" transform="translate(-6 -2)" fill="#f16427"/>
  <path id="Path_29976" data-name="Path 29976" d="M30.32,52.56a.32.32,0,0,0,.32-.32V50.32a.32.32,0,0,0-.64,0v1.92A.32.32,0,0,0,30.32,52.56Z" transform="translate(-28.08 -45.183)" fill="#f16427"/>
  <path id="Path_29977" data-name="Path 29977" d="M46.32,52.56a.32.32,0,0,0,.32-.32V50.32a.32.32,0,1,0-.64,0v1.92A.32.32,0,0,0,46.32,52.56Z" transform="translate(-42.8 -45.183)" fill="#f16427"/>
  <path id="Path_29978" data-name="Path 29978" d="M62.32,52.56a.32.32,0,0,0,.32-.32V50.32a.32.32,0,0,0-.64,0v1.92A.32.32,0,0,0,62.32,52.56Z" transform="translate(-57.52 -45.183)" fill="#f16427"/>
</svg>
