<svg xmlns="http://www.w3.org/2000/svg" width="10.312" height="8.807" viewBox="0 0 10.312 8.807">
  <g id="Group_18365" data-name="Group 18365" transform="translate(-327.308 -427.666)">
    <g id="Group" transform="translate(327.308 427.666)">
      <g id="Vector" transform="translate(0 0)" fill="#f16427">
        <path d="M 5.139968395233154 8.09992790222168 L 1.106118321418762 4.065489292144775 C 0.7152683138847351 3.674519062042236 0.4999983310699463 3.154709100723267 0.4999983310699463 2.601839065551758 C 0.4999983310699463 2.048979043960571 0.7152683138847351 1.529169201850891 1.106148362159729 1.138169169425964 C 1.497028350830078 0.7473991513252258 2.016838312149048 0.532129168510437 2.569708347320557 0.532129168510437 C 3.122578382492065 0.532129168510437 3.642388343811035 0.7473991513252258 4.033378124237061 1.138269186019897 L 4.786568164825439 1.890819191932678 L 5.139968395233154 2.243909120559692 L 5.493368148803711 1.890809178352356 L 6.246448516845703 1.138369202613831 L 6.249598503112793 1.135229110717773 L 6.252698421478271 1.13201916217804 C 6.444668292999268 0.933259129524231 6.670768260955811 0.7771591544151306 6.924698352813721 0.6680691242218018 C 7.178618431091309 0.5589991211891174 7.447488307952881 0.5024791359901428 7.723818302154541 0.5000791549682617 L 7.741848468780518 0.4999991357326508 C 8.011978149414062 0.4999991357326508 8.275718688964844 0.5518691539764404 8.525738716125488 0.6541691422462463 C 8.78151798248291 0.7588091492652893 9.010288238525391 0.910949170589447 9.205708503723145 1.106359124183655 C 9.401118278503418 1.30177915096283 9.553257942199707 1.530549168586731 9.65789794921875 1.786309123039246 C 9.762548446655273 2.042099237442017 9.814388275146484 2.311899185180664 9.81198787689209 2.588239192962646 C 9.809588432312012 2.864579200744629 9.753067970275879 3.133449077606201 9.643988609313965 3.387379169464111 C 9.534908294677734 3.641299247741699 9.37880802154541 3.867399215698242 9.180047988891602 4.059369087219238 L 9.176908493041992 4.062408924102783 L 9.173818588256836 4.065489292144775 L 5.139968395233154 8.09992790222168 Z" stroke="none"/>
        <path d="M 7.741847991943359 0.9999990463256836 L 7.728148460388184 1.000059127807617 C 7.51856803894043 1.001879215240479 7.314638137817383 1.04474925994873 7.122058391571045 1.127479076385498 C 6.929438591003418 1.210219383239746 6.757948398590088 1.328619003295898 6.612338066101074 1.479379177093506 L 6.599858283996582 1.492079257965088 L 5.139968395233154 2.950719356536865 L 3.679878234863281 1.491878986358643 C 3.383318424224854 1.195409297943115 2.989048480987549 1.032129287719727 2.569708347320557 1.032129287719727 C 2.150368690490723 1.032129287719727 1.756098747253418 1.195409297943115 1.459748268127441 1.491669178009033 C 1.163278579711914 1.788228988647461 0.9999980926513672 2.182498931884766 0.9999980926513672 2.601839065551758 C 0.9999980926513672 3.02117919921875 1.163278579711914 3.415449142456055 1.459698677062988 3.711959362030029 L 5.139968395233154 7.392765998840332 L 8.832677841186523 3.6997389793396 C 8.983448028564453 3.554119110107422 9.101848602294922 3.382619380950928 9.184577941894531 3.190039157867432 C 9.267318725585938 2.997429370880127 9.310188293457031 2.793498992919922 9.312007904052734 2.583889007568359 C 9.313828468322754 2.374299049377441 9.274508476257324 2.16965913772583 9.195128440856934 1.975639343261719 C 9.115768432617188 1.781649112701416 9.000368118286133 1.608139038085938 8.852148056030273 1.459918975830078 C 8.703938484191895 1.311698913574219 8.530418395996094 1.196309089660645 8.336398124694824 1.116929054260254 C 8.146768569946289 1.039339065551758 7.946728229522705 0.9999990463256836 7.741847991943359 0.9999990463256836 M 7.741846084594727 1.9073486328125e-06 C 8.075529098510742 1.9073486328125e-06 8.406100273132324 0.06498336791992188 8.715078353881836 0.1913995742797852 C 9.030948638916016 0.3206291198730469 9.317928314208984 0.511479377746582 9.559258460998535 0.7528095245361328 C 9.800588607788086 0.9941391944885254 9.991437911987305 1.28110933303833 10.12066841125488 1.596989154815674 C 10.24990844726562 1.912868976593018 10.31493854522705 2.25131893157959 10.31196784973145 2.592589378356934 C 10.30900859832764 2.933869361877441 10.23809814453125 3.271139144897461 10.10339832305908 3.584719181060791 C 9.968688011169434 3.898299217224121 9.772878646850586 4.181919097900391 9.527398109436035 4.419019222259521 L 5.139968395233154 8.807088851928711 L 0.7525386810302734 4.419019222259521 C 0.2706880569458008 3.937019348144531 -1.9073486328125e-06 3.283379077911377 -1.9073486328125e-06 2.601839065551758 C -1.9073486328125e-06 1.920299053192139 0.2706880569458008 1.266659259796143 0.7525386810302734 0.7846689224243164 C 1.234528541564941 0.3028192520141602 1.888168334960938 0.03212928771972656 2.569708347320557 0.03212928771972656 C 3.251248359680176 0.03212928771972656 3.904888153076172 0.3028192520141602 4.386878490447998 0.7846689224243164 L 5.139968395233154 1.537109375 L 5.893048286437988 0.7846689224243164 C 6.130148410797119 0.5391788482666016 6.413768291473389 0.343379020690918 6.727348327636719 0.2086687088012695 C 7.040928363800049 0.07396888732910156 7.378198623657227 0.00305938720703125 7.719478607177734 9.918212890625e-05 C 7.726935386657715 3.4332275390625e-05 7.734392166137695 1.9073486328125e-06 7.741846084594727 1.9073486328125e-06 Z" stroke="none" fill="#f16427"/>
      </g>
    </g>
  </g>
</svg>
