<svg id="heart_3" data-name="heart 3" xmlns="http://www.w3.org/2000/svg" width="10.312" height="8.807" viewBox="0 0 10.312 8.807">
  <g id="Group" transform="translate(0 0)">
    <g id="Vector" transform="translate(0 0)" fill="none">
      <path d="M.753.785a2.57,2.57,0,0,1,3.634,0l.753.752L5.893.785A2.57,2.57,0,1,1,9.527,4.419L5.14,8.807.753,4.419a2.57,2.57,0,0,1,0-3.634Z" stroke="none"/>
      <path d="M 7.741847991943359 0.9999990463256836 L 7.728148460388184 1.000059127807617 C 7.51856803894043 1.001879215240479 7.314638137817383 1.04474925994873 7.122058391571045 1.127479076385498 C 6.929438591003418 1.210219383239746 6.757948398590088 1.328619003295898 6.612338066101074 1.479379177093506 L 6.599858283996582 1.492079257965088 L 5.139968395233154 2.950719356536865 L 3.679878234863281 1.491878986358643 C 3.383318424224854 1.195409297943115 2.989048480987549 1.032129287719727 2.569708347320557 1.032129287719727 C 2.150368690490723 1.032129287719727 1.756098747253418 1.195409297943115 1.459748268127441 1.491669178009033 C 1.163278579711914 1.788228988647461 0.9999980926513672 2.182498931884766 0.9999980926513672 2.601839065551758 C 0.9999980926513672 3.02117919921875 1.163278579711914 3.415449142456055 1.459698677062988 3.711959362030029 L 5.139968395233154 7.392765998840332 L 8.832677841186523 3.6997389793396 C 8.983448028564453 3.554119110107422 9.101848602294922 3.382619380950928 9.184577941894531 3.190039157867432 C 9.267318725585938 2.997429370880127 9.310188293457031 2.793498992919922 9.312007904052734 2.583889007568359 C 9.313828468322754 2.374299049377441 9.274508476257324 2.16965913772583 9.195128440856934 1.975639343261719 C 9.115768432617188 1.781649112701416 9.000368118286133 1.608139038085938 8.852148056030273 1.459918975830078 C 8.703938484191895 1.311698913574219 8.530418395996094 1.196309089660645 8.336398124694824 1.116929054260254 C 8.146768569946289 1.039339065551758 7.946728229522705 0.9999990463256836 7.741847991943359 0.9999990463256836 M 7.741846084594727 1.9073486328125e-06 C 8.075529098510742 1.9073486328125e-06 8.406100273132324 0.06498336791992188 8.715078353881836 0.1913995742797852 C 9.030948638916016 0.3206291198730469 9.317928314208984 0.511479377746582 9.559258460998535 0.7528095245361328 C 9.800588607788086 0.9941391944885254 9.991437911987305 1.28110933303833 10.12066841125488 1.596989154815674 C 10.24990844726562 1.912868976593018 10.31493854522705 2.25131893157959 10.31196784973145 2.592589378356934 C 10.30900859832764 2.933869361877441 10.23809814453125 3.271139144897461 10.10339832305908 3.584719181060791 C 9.968688011169434 3.898299217224121 9.772878646850586 4.181919097900391 9.527398109436035 4.419019222259521 L 5.139968395233154 8.807088851928711 L 0.7525386810302734 4.419019222259521 C 0.2706880569458008 3.937019348144531 -1.9073486328125e-06 3.283379077911377 -1.9073486328125e-06 2.601839065551758 C -1.9073486328125e-06 1.920299053192139 0.2706880569458008 1.266659259796143 0.7525386810302734 0.7846689224243164 C 1.234528541564941 0.3028192520141602 1.888168334960938 0.03212928771972656 2.569708347320557 0.03212928771972656 C 3.251248359680176 0.03212928771972656 3.904888153076172 0.3028192520141602 4.386878490447998 0.7846689224243164 L 5.139968395233154 1.537109375 L 5.893048286437988 0.7846689224243164 C 6.130148410797119 0.5391788482666016 6.413768291473389 0.343379020690918 6.727348327636719 0.2086687088012695 C 7.040928363800049 0.07396888732910156 7.378198623657227 0.00305938720703125 7.719478607177734 9.918212890625e-05 C 7.726935386657715 3.4332275390625e-05 7.734392166137695 1.9073486328125e-06 7.741846084594727 1.9073486328125e-06 Z" stroke="none" fill="#f16427"/>
    </g>
  </g>
</svg>
