<svg xmlns="http://www.w3.org/2000/svg" width="15.342" height="17.26" viewBox="0 0 15.342 17.26">
  <path id="noun-inventory-3039108" d="M104.846,17.262H103.51a2.4,2.4,0,0,1-2.4-2.4V4.317a2.391,2.391,0,0,1,2.038-2.361V1.92H104.8L105.61.886A1.875,1.875,0,0,1,107.256,0h3.2A1.876,1.876,0,0,1,112.1.886l.811,1.034h1.5v.036a2.391,2.391,0,0,1,2.038,2.361V14.865a2.4,2.4,0,0,1-2.4,2.4Zm0-1.918H103.51a.48.48,0,0,1-.48-.479V4.317a.48.48,0,0,1,.48-.479h10.548a.48.48,0,0,1,.48.479V14.865a.48.48,0,0,1-.48.479Zm6.815-8.63h-5.753a.959.959,0,1,0,0,1.918h5.753a.959.959,0,1,0,0-1.918Zm0,3.836h-5.753a.959.959,0,1,0,0,1.918h5.753a.959.959,0,1,0,0-1.918Z" transform="translate(-101.113 -0.002)" fill="#273b60" fill-rule="evenodd"/>
</svg>
