<svg id="Group_15344" data-name="Group 15344" xmlns="http://www.w3.org/2000/svg" width="16.721" height="18.512" viewBox="0 0 16.721 18.512">
  <path id="Path_29831" data-name="Path 29831" d="M160.479,229.19v11.135l-6.869-1.969v-5.674l5.37.308Z" transform="translate(-152.342 -221.813)" fill="#273b60" fill-rule="evenodd"/>
  <path id="Path_29832" data-name="Path 29832" d="M371.105,211.14l-6.445-.393,1.6,4.091,6.445-.393Z" transform="translate(-355.981 -204.018)" fill="#273b60" fill-rule="evenodd"/>
  <path id="Path_29833" data-name="Path 29833" d="M361.978,229.19l1.5,3.8,5.37-.308v5.674l-6.868,1.969Z" transform="translate(-353.393 -221.813)" fill="#273b60" fill-rule="evenodd"/>
  <path id="Path_29834" data-name="Path 29834" d="M119.089,211.14l-1.6,3.3,6.446.393,1.6-4.091Z" transform="translate(-117.492 -204.018)" fill="#273b60" fill-rule="evenodd"/>
  <path id="Path_29835" data-name="Path 29835" d="M352.225,21.011a1.909,1.909,0,1,1-1.909-1.909A1.911,1.911,0,0,1,352.225,21.011Z" transform="translate(-340.3 -19.102)" fill="#273b60"/>
  <path id="Path_29836" data-name="Path 29836" d="M262.823,43.432A1.033,1.033,0,1,1,261.79,42.4,1.035,1.035,0,0,1,262.823,43.432Z" transform="translate(-255.725 -41.58)" fill="#273b60"/>
  <path id="Path_29837" data-name="Path 29837" d="M414.039,146.106a1.033,1.033,0,1,1-1.034-1.034A1.035,1.035,0,0,1,414.039,146.106Z" transform="translate(-401.632 -140.649)" fill="#273b60"/>
  <path id="Path_29838" data-name="Path 29838" d="M320.409,125.459a1.034,1.034,0,1,1-1.034-1.034A1.035,1.035,0,0,1,320.409,125.459Z" transform="translate(-311.29 -120.727)" fill="#273b60"/>
  <path id="Path_29839" data-name="Path 29839" d="M220.334,132.543a1.325,1.325,0,1,1-1.325-1.325A1.327,1.327,0,0,1,220.334,132.543Z" transform="translate(-214.166 -127.281)" fill="#273b60"/>
</svg>
