<?xml version="1.0" encoding="utf-8"?>
<!-- Generator: Adobe Illustrator 26.0.1, SVG Export Plug-In . SVG Version: 6.00 Build 0)  -->
<svg version="1.1" id="Layer_1" xmlns="http://www.w3.org/2000/svg" xmlns:xlink="http://www.w3.org/1999/xlink" x="0px" y="0px"
	 viewBox="0 0 1000 1000" style="enable-background:new 0 0 1000 1000;" xml:space="preserve">
<style type="text/css">
	.st0{fill:#273B60;}
	.st1{fill:#F16427;}
</style>
<g>
	<g>
		<path class="st0" d="M789.7,517.9c-2.4-6.5-7-12.2-11-18.1c-7.2,3.9-14.7,7.3-22.3,10.3c2.5,3.7,5,7.3,7.6,10.8
			c4.4,5.9,5.1,11.7,0.3,17.6c-5.1,6.2-11.7,9-19.8,8.9c-31.7-0.1-63.5-0.1-95.2,0c-13.7,0-17.3,3.5-17.3,17.1
			c0,76.1,0,152.3,0,228.4v10.4H531.1c0-30.6,0.1-60.7-0.1-90.8c-0.1-9.6-0.2-19.5-2.1-28.9c-7.3-35.5-37.2-61.7-73.2-65
			c-33.9-3.1-71.1,25.2-80.2,61.4c-1.9,7.5-2.8,15.4-2.9,23.1c-0.3,30.4-0.1,60.8-0.1,91.2v9.2H272.4V567.5
			c0-16.9-2.5-19.4-19.7-19.4c-30.1,0-60.3,0.2-90.4-0.2c-5.7-0.1-12-1.4-16.8-4.3c-11.5-6.8-11.7-16.9-1.3-25.4
			c26.3-21.4,52.6-42.8,78.9-64.2c67.8-55.1,135.8-110.1,203.4-165.5c14.5-11.9,28.5-16.4,45.4-5.4c3,1.9,7.6,1.2,12.1,1.9
			c-0.1,0.6-0.1,1.2-0.2,1.8c1-7.2,2.5-14.4,4.2-21.4c-25.1-18.3-49.8-17.5-73.4,1.7c-42.2,34.2-84.4,68.4-126.6,102.6
			c-53.3,43.2-106.6,86.3-159.8,129.5c-19.4,15.8-20.7,40.9-3.1,58.6c9.8,9.9,21.8,14.4,35.6,14.4c26.1,0,52.2,0,78.3,0
			c2.9,0,5.8,0.2,9.5,0.4v10.8c0,75,0,150.1,0,225.1c0,16.5,2.9,19.4,19.1,19.4c123.2,0,246.4,0,369.6,0c15.3,0,19-3.7,19-19
			c0-75.6,0-151.2,0-226.7v-10.1c22.5,0,44,0.1,65.4,0c10.7-0.1,21.6,0.5,32.2-1C780.3,567.7,798.2,541.1,789.7,517.9z M506.2,803.6
			H396.8c-0.1-2.7-0.4-5.2-0.4-7.8c0-31.2,0-62.4,0-93.5c0-29.7,19.4-53.7,48.5-58.6c19.9-3.4,35.4,6,48,20.6
			c8.2,9.4,12.9,20.7,13.1,33.1c0.5,34.1,0.4,68.3,0.5,102.4C506.7,800.8,506.4,801.8,506.2,803.6z"/>
		<path class="st1" d="M686.9,333.8c-17.2,17.2-34.1,34-51,50.9c-2.1,2.1-4.1,4.3-6.4,6.2c-5.6,4.6-12,4.3-16.7-0.5
			c-4.5-4.7-4.8-11.6,0-16.7c7-7.5,14.4-14.5,21.6-21.8c11.6-11.6,23.2-23.1,35.9-35.8c-4.2-3.9-8.2-7.4-12-11.1
			c-14.5-14.4-29-28.8-43.5-43.2c-6.6-6.6-7.2-13.8-1.9-19.1c5.4-5.4,12.2-4.9,19.1,1.9c18.1,18,36.2,36,55,54.7
			c1.9-1.8,3.8-3.5,5.6-5.3c16.4-16.3,32.7-32.7,49.1-49c7-6.9,13.7-7.8,19-2.7c5.5,5.3,4.8,12.7-2.2,19.8
			c-17.8,17.9-35.8,35.7-54.1,54c2,2.2,3.7,4.2,5.5,6c15.8,15.8,31.6,31.5,47.4,47.3c1.7,1.7,3.5,3.4,4.9,5.3
			c3.8,5.6,2.9,12.9-2.2,16.6c-5.9,4.3-11.6,3.4-16.7-1.7c-16.6-16.5-33.1-33.1-49.6-49.6C691.5,338.1,689.4,336.1,686.9,333.8z"/>
	</g>
	<g>
		<path class="st1" d="M684.4,110.7c-94.4,0-173.9,65.9-196.5,154.8c-1.8,7-3.2,14.1-4.2,21.4c-1.4,9.9-2.2,20-2.2,30.2
			c0,15.1,1.6,29.7,4.6,43.9c0,0.1,0,0.1,0,0.2c3.1,14.5,7.7,28.5,13.7,41.7c0.2,0.5,0.4,0.9,0.6,1.4
			c32.3,70.4,102.6,119.3,183.9,119.3c25.3,0,49.6-4.8,72-13.4c7.7-3,15.1-6.4,22.3-10.3c64.5-34.6,108.6-103.5,108.6-182.7
			C887.3,203.3,796.3,110.7,684.4,110.7z M854.9,317.1c0,96.2-76.5,174.4-170.5,174.4c-94,0-170.5-78.3-170.5-174.4
			c0-96.2,76.5-174.4,170.5-174.4C778.4,142.7,854.9,220.9,854.9,317.1z"/>
	</g>
</g>
</svg>
