<svg xmlns="http://www.w3.org/2000/svg" width="18.872" height="23" viewBox="0 0 18.872 23">
  <path id="Icon_material-notifications-none" data-name="Icon material-notifications-none" d="M15.436,26.75a2.366,2.366,0,0,0,2.359-2.359H13.077A2.366,2.366,0,0,0,15.436,26.75Zm7.077-7.077v-5.9c0-3.621-1.923-6.652-5.308-7.454v-.8a1.769,1.769,0,0,0-3.538,0v.8c-3.373.8-5.308,3.822-5.308,7.454v5.9L6,22.032v1.179H24.872V22.032Zm-2.359,1.179H10.718V13.776c0-2.925,1.781-5.308,4.718-5.308s4.718,2.383,4.718,5.308Z" transform="translate(-6 -3.75)" fill="#273b60"/>
</svg>
