<svg id="Group_12216" data-name="Group 12216" xmlns="http://www.w3.org/2000/svg" width="16.651" height="18.8" viewBox="0 0 16.651 18.8">
  <path id="Path_29771" data-name="Path 29771" d="M20.388,19.2a.769.769,0,0,0-.215-.8A5.084,5.084,0,0,1,18.7,14.647V10.928c0-4.046-2.98-7.337-6.642-7.337S5.418,6.882,5.418,10.928v3.954a5.521,5.521,0,0,1-1.429,3.546.772.772,0,0,0-.172.794.657.657,0,0,0,.608.462H19.773A.658.658,0,0,0,20.388,19.2Zm-14.6-.955a6.724,6.724,0,0,0,.933-3.362V10.928a5.645,5.645,0,0,1,5.339-5.9,5.645,5.645,0,0,1,5.339,5.9v3.719a7,7,0,0,0,.951,3.6Z" transform="translate(-3.773 -3.591)" fill="#273b60"/>
  <path id="Path_29772" data-name="Path 29772" d="M10.665,19.12a.72.72,0,0,0,0,1.44h3.157a.72.72,0,0,0,0-1.44Z" transform="translate(-3.916 -1.76)" fill="#273b60"/>
</svg>
