<svg xmlns="http://www.w3.org/2000/svg" width="17.358" height="18.866" viewBox="0 0 17.358 18.866">
  <path id="noun-history-3845540" d="M167.762,77.677V68.661a2.471,2.471,0,0,0-2.471-2.471H155.8a2.471,2.471,0,0,0-2.471,2.471V80.247a2.471,2.471,0,0,0,2.471,2.471h7.691a3.734,3.734,0,1,0,4.27-5.041Zm-10.725-7.928h7.018a.5.5,0,0,1,.494.494.494.494,0,0,1-.494.494h-7.019a.494.494,0,0,1-.494-.494.5.5,0,0,1,.494-.494Zm0,2.807h7.018a.494.494,0,1,1,0,.988h-7.018a.494.494,0,1,1,0-.988Zm0,2.807h7.018a.494.494,0,0,1,.494.494.5.5,0,0,1-.494.494h-7.018a.5.5,0,0,1-.494-.494.494.494,0,0,1,.494-.494Zm5.407,3.8h-5.407a.494.494,0,1,1,0-.988h5.407a.494.494,0,1,1,0,.988Zm4.507,4.913h0a2.757,2.757,0,1,1,1.944-.811,2.752,2.752,0,0,1-1.944.811Zm.494-4.236V81.32h0a.494.494,0,0,1-.313.461l-.907.355a.484.484,0,0,1-.181.034.494.494,0,0,1-.18-.955l.593-.231V79.837a.494.494,0,1,1,.988,0Z" transform="translate(-153.33 -66.19)" fill="#273b60"/>
</svg>
