<svg xmlns="http://www.w3.org/2000/svg" width="27.346" height="27.349" viewBox="0 0 27.346 27.349">
  <path id="noun-history-3848246" d="M158.789,81.666V70.8a3.6,3.6,0,0,0-3.6-3.6H140.8a3.6,3.6,0,0,0-3.6,3.6V86.63a3.6,3.6,0,0,0,3.6,3.6h11.191a6.461,6.461,0,1,0,6.8-8.562Zm-7.123,7.123H140.8a2.159,2.159,0,0,1-2.159-2.159V70.8A2.159,2.159,0,0,1,140.8,68.64H155.19a2.159,2.159,0,0,1,2.159,2.159V81.666a6.462,6.462,0,0,0-5.757,6.4,6.231,6.231,0,0,0,.074.72Zm6.4,4.318a5.037,5.037,0,1,1,3.562-1.475A5.037,5.037,0,0,1,158.069,93.106Zm.72-7.916v2.879a.72.72,0,0,1-.72.72h-2.085a.72.72,0,0,1,0-1.439h1.366V85.19a.72.72,0,1,1,1.439,0ZM141.517,72.237a.72.72,0,0,1,.72-.72h11.514a.72.72,0,0,1,0,1.439H142.237A.72.72,0,0,1,141.517,72.237Zm0,4.318a.72.72,0,0,1,.72-.72h11.514a.72.72,0,0,1,0,1.439H142.237A.72.72,0,0,1,141.517,76.555ZM153.3,81.592H142.238a.72.72,0,1,1,0-1.439h11.068a.72.72,0,1,1,0,1.439Zm-2.648,3.6a.719.719,0,0,1-.72.72h-7.7a.72.72,0,1,1,0-1.439h7.7a.72.72,0,0,1,.72.72Z" transform="translate(-137.2 -67.2)" fill="#f16427"/>
</svg>
