<svg xmlns="http://www.w3.org/2000/svg" width="22.808" height="23.156" viewBox="0 0 22.808 23.156">
  <g id="Group_15327" data-name="Group 15327" transform="translate(0)">
    <path id="Path_29823" data-name="Path 29823" d="M255.043,68.267a3.053,3.053,0,1,0-3.053-3.053A3.046,3.046,0,0,0,255.043,68.267Zm0-4.672a1.619,1.619,0,1,1-1.619,1.619A1.609,1.609,0,0,1,255.043,63.595Z" transform="translate(-245.552 -62.16)" fill="#273b60"/>
    <path id="Path_29824" data-name="Path 29824" d="M249.313,250.615c0,.2-.254.588-.548.588h-1.913c-.294,0-.549-.385-.549-.588l-.665-9.767h-1.471l.7,10.076c.074.711.956,1.294,2.023,1.294H248.8c1.03,0,1.95-.609,2.023-1.32l.588-10.1h-1.435Z" transform="translate(-238.243 -229.061)" fill="#273b60"/>
    <path id="Path_29825" data-name="Path 29825" d="M176.811,178.751v-2.833a1.963,1.963,0,0,0-1.95-1.95h-3.936v1.471h3.936a.487.487,0,0,1,.478.478v2.833h-5.518v-3.164a1.963,1.963,0,0,0-1.913-1.986h-8.645a2,2,0,0,0-1.95,1.986v3.164H154v1.1h4.783v-4.267a.52.52,0,0,1,.478-.515h8.645a.49.49,0,0,1,.441.515v4.267h8.461v-1.1Z" transform="translate(-154.002 -166.28)" fill="#273b60"/>
    <path id="Path_29826" data-name="Path 29826" d="M372.286,97.773a2.685,2.685,0,1,0-2.685-2.685A2.677,2.677,0,0,0,372.286,97.773Zm0-3.973a1.251,1.251,0,1,1-1.251,1.251A1.24,1.24,0,0,1,372.286,93.8Z" transform="translate(-355.438 -90.415)" fill="#273b60"/>
  </g>
</svg>
