<svg xmlns="http://www.w3.org/2000/svg" width="16.373" height="19.219" viewBox="0 0 16.373 19.219">
  <path id="Path_29840" data-name="Path 29840" d="M164.764,46.639a11.391,11.391,0,0,1-6.325-1.915l-1.31-.872a.356.356,0,0,0-.392,0l-1.31.872a11.39,11.39,0,0,1-6.325,1.915.356.356,0,0,0-.356.356v4.891A10.343,10.343,0,0,0,153,60.232l3.727,2.712h0a.356.356,0,0,0,.42,0l3.727-2.712h0a10.343,10.343,0,0,0,4.25-8.346V47a.356.356,0,0,0-.356-.356Z" transform="translate(-148.747 -43.794)" fill="#273b60"/>
</svg>
