<svg xmlns="http://www.w3.org/2000/svg" width="17.582" height="19.224" viewBox="0 0 17.582 19.224">
  <path id="Path_31675" data-name="Path 31675" d="M133.853,33.52a5.243,5.243,0,0,0-2.306,9.952,8.428,8.428,0,0,0-6.111,8.1h0a.42.42,0,1,0,.839,0A7.571,7.571,0,0,1,133.532,44c.106.006.213.01.321.01s.214,0,.321-.01a7.569,7.569,0,0,1,7.255,7.571.42.42,0,1,0,.839,0,8.427,8.427,0,0,0-6.109-8.1,5.243,5.243,0,0,0-2.306-9.952Zm0,.839a4.4,4.4,0,0,1,.312,8.8q-.155-.006-.312-.006t-.312.006a4.4,4.4,0,0,1,.312-8.8Z" transform="translate(-125.061 -33.145)" fill="#273b60" stroke="#273b60" stroke-width="0.75" fill-rule="evenodd"/>
</svg>
