<svg id="Group_11517" data-name="Group 11517" xmlns="http://www.w3.org/2000/svg" width="6.51" height="6.213" viewBox="0 0 6.51 6.213">
  <g id="Group_11516" data-name="Group 11516" transform="translate(0 0)">
    <path id="Path_29576" data-name="Path 29576" d="M6.489,213.078a.448.448,0,0,0-.362-.3l-1.709-.248-.764-1.547a.465.465,0,0,0-.8,0l-.764,1.547-1.7.248a.447.447,0,0,0-.247.763l1.236,1.2-.291,1.7a.447.447,0,0,0,.65.472l1.523-.8,1.527.8a.446.446,0,0,0,.208.051.454.454,0,0,0,.264-.085.449.449,0,0,0,.178-.438l-.291-1.7,1.236-1.2A.447.447,0,0,0,6.489,213.078Z" transform="translate(0 -210.749)" fill="#fdce0c"/>
  </g>
</svg>
