<svg id="rating" xmlns="http://www.w3.org/2000/svg" width="55.618" height="9.833" viewBox="0 0 55.618 9.833">
  <g id="Group_11517" data-name="Group 11517" transform="translate(0 0.001)">
    <g id="Group_11516" data-name="Group 11516" transform="translate(0 0)">
      <path id="Path_29576" data-name="Path 29576" d="M10.269,214.435a.708.708,0,0,0-.572-.482l-2.7-.393-1.209-2.448a.736.736,0,0,0-1.27,0L3.3,213.56l-2.7.393a.708.708,0,0,0-.391,1.208l1.956,1.9-.461,2.691a.708.708,0,0,0,1.028.746l2.41-1.271L7.565,220.5a.706.706,0,0,0,.329.082.718.718,0,0,0,.418-.135.71.71,0,0,0,.282-.693l-.461-2.691,1.956-1.9A.707.707,0,0,0,10.269,214.435Z" transform="translate(0 -210.749)" fill="#fdce0c"/>
    </g>
  </g>
  <g id="Group_11519" data-name="Group 11519" transform="translate(11.329 0.001)">
    <g id="Group_11518" data-name="Group 11518" transform="translate(0 0)">
      <path id="Path_29577" data-name="Path 29577" d="M114.557,214.435a.708.708,0,0,0-.572-.482l-2.7-.393-1.209-2.448a.736.736,0,0,0-1.27,0l-1.209,2.448-2.7.393a.708.708,0,0,0-.391,1.208l1.956,1.9L106,219.753a.708.708,0,0,0,1.028.746l2.41-1.271,2.417,1.271a.706.706,0,0,0,.329.082.718.718,0,0,0,.418-.135.71.71,0,0,0,.282-.693l-.461-2.691,1.956-1.9A.707.707,0,0,0,114.557,214.435Z" transform="translate(-104.289 -210.749)" fill="#fdce0c"/>
    </g>
  </g>
  <g id="Group_11521" data-name="Group 11521" transform="translate(22.657 0.001)">
    <g id="Group_11520" data-name="Group 11520" transform="translate(0 0)">
      <path id="Path_29578" data-name="Path 29578" d="M218.845,214.435a.708.708,0,0,0-.572-.482l-2.7-.393-1.209-2.448a.736.736,0,0,0-1.27,0l-1.209,2.448-2.7.393a.708.708,0,0,0-.392,1.208l1.956,1.9-.461,2.691a.708.708,0,0,0,1.028.746l2.41-1.271,2.417,1.271a.706.706,0,0,0,.329.082.718.718,0,0,0,.418-.135.71.71,0,0,0,.282-.693l-.461-2.691,1.956-1.9A.707.707,0,0,0,218.845,214.435Z" transform="translate(-208.577 -210.749)" fill="#fdce0c"/>
    </g>
  </g>
  <g id="Group_11523" data-name="Group 11523" transform="translate(33.986 0)">
    <g id="Group_11522" data-name="Group 11522">
      <path id="Path_29579" data-name="Path 29579" d="M323.135,214.429a.708.708,0,0,0-.572-.482l-2.7-.393-1.209-2.448a.736.736,0,0,0-1.27,0l-1.209,2.448-2.7.393a.708.708,0,0,0-.391,1.208l1.956,1.9-.461,2.691a.708.708,0,0,0,1.028.746l2.41-1.271,2.417,1.271a.706.706,0,0,0,.329.081.718.718,0,0,0,.418-.135.71.71,0,0,0,.282-.693L321,217.056l1.956-1.9A.707.707,0,0,0,323.135,214.429Z" transform="translate(-312.866 -210.742)" fill="#fdce0c"/>
    </g>
  </g>
  <g id="Group_11525" data-name="Group 11525" transform="translate(45.315 0.001)">
    <g id="Group_11524" data-name="Group 11524" transform="translate(0 0)">
      <path id="Path_29580" data-name="Path 29580" d="M427.424,214.436a.708.708,0,0,0-.572-.482l-2.7-.393-1.209-2.448a.736.736,0,0,0-1.27,0l-1.209,2.448-2.7.393a.708.708,0,0,0-.392,1.208l1.956,1.9-.461,2.691a.708.708,0,0,0,1.028.746l2.41-1.271,2.417,1.271a.706.706,0,0,0,.329.081.718.718,0,0,0,.418-.134.711.711,0,0,0,.282-.693l-.461-2.691,1.956-1.9A.707.707,0,0,0,427.424,214.436Zm-3.392,1.871a.709.709,0,0,0-.2.627l.282,1.644-1.478-.777a.706.706,0,0,0-.659,0l-1.47.775.282-1.642a.708.708,0,0,0-.2-.627l-1.192-1.159,1.643-.239a.708.708,0,0,0,.532-.387l.738-1.5.738,1.5a.706.706,0,0,0,.533.387l1.65.24Z" transform="translate(-417.155 -210.75)" fill="#fdce0c"/>
    </g>
  </g>
</svg>
