<svg xmlns="http://www.w3.org/2000/svg" width="13.999" height="13.999" viewBox="0 0 13.999 13.999">
  <path id="noun-search-4511456" d="M68.328,2.675a5.152,5.152,0,1,0,0,7.286A5.152,5.152,0,0,0,68.328,2.675ZM60.217,1.85a6.319,6.319,0,0,1,9.329,8.5L72.195,13a.583.583,0,1,1-.825.825L68.722,11.18a6.319,6.319,0,0,1-8.5-9.329Zm2.346,1.521a.583.583,0,0,1,0,.825,3,3,0,0,0,0,4.244.583.583,0,1,1-.825.825,4.168,4.168,0,0,1,0-5.894.583.583,0,0,1,.825,0Z" transform="translate(-58.367 0)" fill="#f3f3f3" fill-rule="evenodd"/>
</svg>
