<svg xmlns="http://www.w3.org/2000/svg" width="24.074" height="24.074" viewBox="0 0 24.074 24.074">
  <g id="Group_13863" data-name="Group 13863" transform="translate(-1982.946 1675.254)">
    <path id="Path_29807" data-name="Path 29807" d="M92.4,20.537a4.532,4.532,0,0,0,.412-1.746,5.532,5.532,0,0,0,1.529-3.827V13.313a1.9,1.9,0,0,0-1.649-1.884A4.767,4.767,0,0,0,88.4,8.75h-.64a5.618,5.618,0,0,0-3.432,1.178,5.553,5.553,0,0,0-2.158,4.412v.624A5.53,5.53,0,0,0,83.7,18.791a4.555,4.555,0,0,0,1.893,3.544v.94l-2.973.66a4.914,4.914,0,0,0-3.871,4.826v3.564h23.574V20.537Zm3.842.76h1.521v3.042H96.238Zm-9.886,4.521a2.653,2.653,0,0,0,3.8,0v4.225h-3.8Zm4.563-3.484a4.568,4.568,0,0,0,.76-.691v1.8l-.76-.169ZM82.93,14.34a4.8,4.8,0,0,1,1.864-3.812A4.854,4.854,0,0,1,87.759,9.51h.64a4.007,4.007,0,0,1,3.687,2.431l.1.23h.251a1.142,1.142,0,0,1,1.141,1.141v1.651a4.779,4.779,0,0,1-.76,2.593v-3.1h-.833l-.131.052a20.444,20.444,0,0,1-7.625,1.468H83.69v1.583a4.778,4.778,0,0,1-.76-2.593Zm1.521,4.3v-1.9a21.185,21.185,0,0,0,7.6-1.491v3.393a3.8,3.8,0,1,1-7.6,0Zm3.8,4.563a4.532,4.532,0,0,0,1.9-.42v1.181a1.9,1.9,0,1,1-3.8,0V22.778A4.532,4.532,0,0,0,88.253,23.2ZM79.508,28.76a4.157,4.157,0,0,1,3.275-4.082l.908-.2v5.567H82.549v1.521H79.508Zm3.8,2.8V30.8h1.141v-6.5l1.141-.254V30.8h5.323V24.053l.76.169v7.342Zm18.251,0H92.435V21.3h3.042v3.8h3.042V21.3h3.042Z" transform="translate(1904.448 -1683.754)" fill="#273b60" stroke="#273b60" stroke-width="0.5"/>
    <path id="Path_29808" data-name="Path 29808" d="M568.75,498.75h.76v.76h-.76Z" transform="translate(1435.738 -2152.461)" fill="#273b60" stroke="#273b60" stroke-width="0.5"/>
    <path id="Path_29809" data-name="Path 29809" d="M498.75,498.75h2.281v.76H498.75Z" transform="translate(1502.697 -2152.461)" fill="#273b60" stroke="#273b60" stroke-width="0.5"/>
    <path id="Path_29810" data-name="Path 29810" d="M498.75,463.75h3.8v.76h-3.8Z" transform="translate(1502.697 -2118.983)" fill="#273b60" stroke="#273b60" stroke-width="0.5"/>
  </g>
</svg>
