<svg xmlns="http://www.w3.org/2000/svg" width="18.373" height="18.888" viewBox="0 0 18.373 18.888">
  <path id="ic_settings_24px" d="M18.476,12.37a7.36,7.36,0,0,0,.066-.926,7.36,7.36,0,0,0-.066-.926L20.469,8.96a.476.476,0,0,0,.113-.6L18.693,5.088a.475.475,0,0,0-.576-.208l-2.352.944a6.9,6.9,0,0,0-1.6-.926l-.359-2.5a.461.461,0,0,0-.463-.4H9.57a.461.461,0,0,0-.463.4L8.749,4.9a7.256,7.256,0,0,0-1.6.926L4.8,4.88a.461.461,0,0,0-.576.208L2.336,8.356a.466.466,0,0,0,.113.6l1.993,1.558a7.49,7.49,0,0,0-.066.926,7.49,7.49,0,0,0,.066.926L2.449,13.928a.476.476,0,0,0-.113.6L4.225,17.8a.475.475,0,0,0,.576.208l2.352-.944a6.9,6.9,0,0,0,1.6.926l.359,2.5a.461.461,0,0,0,.463.4h3.778a.461.461,0,0,0,.463-.4l.359-2.5a7.256,7.256,0,0,0,1.6-.926l2.352.944a.461.461,0,0,0,.576-.208l1.889-3.268a.476.476,0,0,0-.113-.6Zm-7.017,2.38a3.305,3.305,0,1,1,3.305-3.305A3.309,3.309,0,0,1,11.459,14.75Z" transform="translate(-2.271 -2)" fill="#273b60"/>
</svg>
