<svg xmlns="http://www.w3.org/2000/svg" width="5.758" height="5.758" viewBox="0 0 5.758 5.758">
  <g id="Group_18206" data-name="Group 18206" transform="translate(-114.479 -833.68)">
    <path id="Path_31680" data-name="Path 31680" d="M95.279,22.4a2.879,2.879,0,1,0,2.879,2.879A2.882,2.882,0,0,0,95.279,22.4Zm0,.376a2.5,2.5,0,1,1-2.5,2.5A2.5,2.5,0,0,1,95.279,22.778Zm0,.438a.188.188,0,0,0-.188.188v1.878a.188.188,0,0,0,.188.188h1.752a.188.188,0,1,0,0-.376H95.467V23.4a.188.188,0,0,0-.188-.188Z" transform="translate(22.079 811.278)" fill="#f16427"/>
  </g>
</svg>
