<svg xmlns="http://www.w3.org/2000/svg" width="7.724" height="7.08" viewBox="0 0 7.724 7.08">
  <g id="Group_16565" data-name="Group 16565" transform="translate(-809.621 1378.541)">
    <g id="Group_4104" data-name="Group 4104" transform="translate(809.62 -1378.541)">
      <g id="Group_4103" data-name="Group 4103" transform="translate(0.001 0.965)">
        <g id="Group_4102" data-name="Group 4102" transform="translate(0 1.265)">
          <path id="Path_12591" data-name="Path 12591" d="M2.024,193.95a1.2,1.2,0,0,1-1.14-.821l-.011-.037a1.174,1.174,0,0,1-.056-.349v-2.194l-.781,2.606a.731.731,0,0,0,.512.887l4.976,1.333a.738.738,0,0,0,.185.024.718.718,0,0,0,.7-.526l.29-.922Z" transform="translate(-0.013 -190.549)" fill="#273b60"/>
        </g>
        <path id="Path_12592" data-name="Path 12592" d="M149.977,107.954a.644.644,0,1,0-.644-.644A.644.644,0,0,0,149.977,107.954Z" transform="translate(-147.08 -106.667)" fill="#273b60"/>
      </g>
      <path id="Path_12593" data-name="Path 12593" d="M90.965,42.667H86.138a.806.806,0,0,0-.8.8v3.54a.806.806,0,0,0,.8.8h4.827a.806.806,0,0,0,.8-.8v-3.54A.806.806,0,0,0,90.965,42.667Zm-4.827.644h4.827a.161.161,0,0,1,.161.161v2.285L90.109,44.57a.576.576,0,0,0-.432-.2.563.563,0,0,0-.43.2l-1.2,1.435-.389-.388a.565.565,0,0,0-.8,0l-.888.888V43.472a.161.161,0,0,1,.161-.161Z" transform="translate(-84.045 -42.667)" fill="#273b60"/>
    </g>
  </g>
</svg>
