<svg xmlns="http://www.w3.org/2000/svg" xmlns:xlink="http://www.w3.org/1999/xlink" width="43" height="43" viewBox="0 0 43 43">
  <defs>
    <filter id="Path_30743" x="0" y="0" width="43" height="43" filterUnits="userSpaceOnUse">
      <feOffset dx="-3" dy="-3" input="SourceAlpha"/>
      <feGaussianBlur stdDeviation="4.5" result="blur"/>
      <feFlood flood-color="#fff" flood-opacity="0.561"/>
      <feComposite operator="in" in2="blur"/>
      <feComposite in="SourceGraphic"/>
    </filter>
  </defs>
  <g id="Group_18365" data-name="Group 18365" transform="translate(-788.983 1399.5)">
    <g transform="matrix(1, 0, 0, 1, 788.98, -1399.5)" filter="url(#Path_30743)">
      <g id="Path_30743-2" data-name="Path 30743" transform="translate(16.5 16.5)" fill="none">
        <path d="M8,0a8,8,0,0,1,8,8,8.119,8.119,0,0,1-3.994,6.926A7.7,7.7,0,0,1,8,16,8,8,0,0,1,8,0Z" stroke="none"/>
        <path d="M 8 1 C 4.140190124511719 1 1 4.140190124511719 1 8 C 1 11.85980987548828 4.140190124511719 15 8 15 C 9.272809982299805 15 10.56909942626953 14.65740966796875 11.46759986877441 14.08358001708984 L 11.47348022460938 14.07985019683838 C 13.71463012695312 12.67037963867188 15 10.45436000823975 15 8 C 15 4.140190124511719 11.85980987548828 1 8 1 M 8 0 C 12.41827964782715 0 16 3.581720352172852 16 8 C 16 10.84979057312012 14.50990962982178 13.35155010223389 12.00584983825684 14.92636013031006 C 11.03154945373535 15.54860973358154 9.568490028381348 16 8 16 C 3.581720352172852 16 0 12.41827964782715 0 8 C 0 3.581720352172852 3.581720352172852 0 8 0 Z" stroke="none" fill="#273b60"/>
      </g>
    </g>
    <g id="Group_4104" data-name="Group 4104" transform="translate(809.621 -1378.541)">
      <g id="Group_4103" data-name="Group 4103" transform="translate(0 0.965)">
        <g id="Group_4102" data-name="Group 4102" transform="translate(0 1.265)">
          <path id="Path_12591" data-name="Path 12591" d="M2.024,193.95a1.2,1.2,0,0,1-1.14-.821l-.011-.037a1.174,1.174,0,0,1-.056-.349v-2.194l-.781,2.606a.731.731,0,0,0,.512.887l4.976,1.333a.738.738,0,0,0,.185.024.718.718,0,0,0,.7-.526l.29-.922Z" transform="translate(-0.013 -190.549)" fill="#273b60"/>
        </g>
        <path id="Path_12592" data-name="Path 12592" d="M149.977,107.954a.644.644,0,1,0-.644-.644A.644.644,0,0,0,149.977,107.954Z" transform="translate(-147.08 -106.667)" fill="#273b60"/>
      </g>
      <path id="Path_12593" data-name="Path 12593" d="M90.965,42.667H86.138a.806.806,0,0,0-.8.8v3.54a.806.806,0,0,0,.8.8h4.827a.806.806,0,0,0,.8-.8v-3.54A.806.806,0,0,0,90.965,42.667Zm-4.827.644h4.827a.161.161,0,0,1,.161.161v2.285L90.109,44.57a.576.576,0,0,0-.432-.2.563.563,0,0,0-.43.2l-1.2,1.435-.389-.388a.565.565,0,0,0-.8,0l-.888.888V43.472a.161.161,0,0,1,.161-.161Z" transform="translate(-84.046 -42.667)" fill="#273b60"/>
    </g>
  </g>
</svg>
